<svg xmlns="http://www.w3.org/2000/svg" viewBox="0 0 400 250"><rect width="400" height="250" fill="#03142C"/><rect x="35" y="35" width="53" height="34" fill="#1B3A5C"/><rect x="90" y="35" width="53" height="34" fill="#1B3A5C"/><rect x="146" y="35" width="53" height="34" fill="#1B3A5C"/><rect x="201" y="35" width="53" height="34" fill="#1B3A5C"/><rect x="256" y="35" width="53" height="34" fill="#1B3A5C"/><rect x="312" y="35" width="53" height="34" fill="#1B3A5C"/><rect x="35" y="71" width="53" height="34" fill="#0A2240" opacity="1.00"/><rect x="90" y="71" width="53" height="34" fill="#1FD9FE" opacity="0.66"/><rect x="146" y="71" width="53" height="34" fill="#1FD9FE" opacity="0.77"/><rect x="201" y="71" width="53" height="34" fill="#1FD9FE" opacity="0.30"/><rect x="256" y="71" width="53" height="34" fill="#1FD9FE" opacity="0.64"/><rect x="312" y="71" width="53" height="34" fill="#1FD9FE" opacity="0.59"/><rect x="35" y="108" width="53" height="34" fill="#0A2240" opacity="1.00"/><rect x="90" y="108" width="53" height="34" fill="#1FD9FE" opacity="0.18"/><rect x="146" y="108" width="53" height="34" fill="#1FD9FE" opacity="0.12"/><rect x="201" y="108" width="53" height="34" fill="#1FD9FE" opacity="0.37"/><rect x="256" y="108" width="53" height="34" fill="#1FD9FE" opacity="0.62"/><rect x="312" y="108" width="53" height="34" fill="#1FD9FE" opacity="0.28"/><rect x="35" y="144" width="53" height="34" fill="#0A2240" opacity="1.00"/><rect x="90" y="144" width="53" height="34" fill="#1FD9FE" opacity="0.32"/><rect x="146" y="144" width="53" height="34" fill="#1FD9FE" opacity="0.69"/><rect x="201" y="144" width="53" height="34" fill="#1FD9FE" opacity="0.76"/><rect x="256" y="144" width="53" height="34" fill="#1FD9FE" opacity="0.38"/><rect x="312" y="144" width="53" height="34" fill="#1FD9FE" opacity="0.80"/><rect x="35" y="181" width="53" height="34" fill="#0A2240" opacity="1.00"/><rect x="90" y="181" width="53" height="34" fill="#1FD9FE" opacity="0.67"/><rect x="146" y="181" width="53" height="34" fill="#1FD9FE" opacity="0.71"/><rect x="201" y="181" width="53" height="34" fill="#1FD9FE" opacity="0.21"/><rect x="256" y="181" width="53" height="34" fill="#1FD9FE" opacity="0.59"/><rect x="312" y="181" width="53" height="34" fill="#1FD9FE" opacity="0.49"/></svg>