<svg xmlns="http://www.w3.org/2000/svg" viewBox="0 0 400 250"><rect width="400" height="250" fill="#03142C"/><line x1="34" y1="70" x2="366" y2="70" stroke="#0E2A4D" stroke-width="1"/><line x1="34" y1="107" x2="366" y2="107" stroke="#0E2A4D" stroke-width="1"/><line x1="34" y1="143" x2="366" y2="143" stroke="#0E2A4D" stroke-width="1"/><line x1="34" y1="180" x2="366" y2="180" stroke="#0E2A4D" stroke-width="1"/><line x1="34" y1="216" x2="366" y2="216" stroke="#1B3A5C" stroke-width="1.5"/><line x1="34" y1="24" x2="34" y2="216" stroke="#1B3A5C" stroke-width="1.5"/><line x1="49.09090909090909" y1="122.97698271682727" x2="49.09090909090909" y2="159.24551998722674" stroke="#9FB3C8" stroke-width="2"/><rect x="41.54545454545455" y="134.1" width="15.090909090909092" height="14" rx="2" fill="#9FB3C8"/><line x1="79.27272727272728" y1="122.12189942444009" x2="79.27272727272728" y2="154.29304545239373" stroke="#1FD9FE" stroke-width="2"/><rect x="71.72727272727273" y="127.79000740314129" width="15.090909090909092" height="20" rx="2" fill="#1FD9FE"/><line x1="109.45454545454545" y1="121.69122814680301" x2="109.45454545454545" y2="159.99495150517612" stroke="#9FB3C8" stroke-width="2"/><rect x="101.9090909090909" y="127.79000740314129" width="15.090909090909092" height="21" rx="2" fill="#9FB3C8"/><line x1="139.63636363636363" y1="138.89745667884318" x2="139.63636363636363" y2="175.8516775564542" stroke="#9FB3C8" stroke-width="2"/><rect x="132.0909090909091" y="148.33941376901265" width="15.090909090909092" height="22" rx="2" fill="#9FB3C8"/><line x1="169.8181818181818" y1="161.52295013744143" x2="169.8181818181818" y2="194.62220707900218" stroke="#9FB3C8" stroke-width="2"/><rect x="162.27272727272728" y="169.8758073234844" width="15.090909090909092" height="12" rx="2" fill="#9FB3C8"/><line x1="200.0" y1="171.72405516096168" x2="200.0" y2="188.48713642932177" stroke="#1FD9FE" stroke-width="2"/><rect x="192.45454545454547" y="175.52165689210773" width="15.090909090909092" height="6" rx="2" fill="#1FD9FE"/><line x1="230.1818181818182" y1="162.36722764926077" x2="230.1818181818182" y2="208.57960429674023" stroke="#9FB3C8" stroke-width="2"/><rect x="222.63636363636365" y="175.52165689210773" width="15.090909090909092" height="21" rx="2" fill="#9FB3C8"/><line x1="260.3636363636364" y1="165.6091703809497" x2="260.3636363636364" y2="207.86991941091554" stroke="#1FD9FE" stroke-width="2"/><rect x="252.81818181818184" y="178.27307989524007" width="15.090909090909092" height="18" rx="2" fill="#1FD9FE"/><line x1="290.54545454545456" y1="139.79650968670626" x2="290.54545454545456" y2="184.71633099784145" stroke="#1FD9FE" stroke-width="2"/><rect x="283.0" y="152.1044841010623" width="15.090909090909092" height="26" rx="2" fill="#1FD9FE"/><line x1="320.72727272727275" y1="122.7683384127776" x2="320.72727272727275" y2="163.98912615701153" stroke="#1FD9FE" stroke-width="2"/><rect x="313.1818181818182" y="131.72403599669727" width="15.090909090909092" height="20" rx="2" fill="#1FD9FE"/><line x1="350.90909090909093" y1="119.65761611777975" x2="350.90909090909093" y2="139.34112866409686" stroke="#1FD9FE" stroke-width="2"/><rect x="343.3636363636364" y="127.98860401413538" width="15.090909090909092" height="4" rx="2" fill="#1FD9FE"/></svg>