<svg xmlns="http://www.w3.org/2000/svg" viewBox="0 0 400 250"><rect width="400" height="250" fill="#03142C"/><rect x="34" y="24" width="332" height="192" fill="none" stroke="#1B3A5C" stroke-width="1.5"/><clipPath id="c"><rect x="34" y="24" width="332" height="192"/></clipPath><g clip-path="url(#c)"><circle cx="53" cy="64" r="22" fill="#1FD9FE" opacity=".05"/><circle cx="168" cy="154" r="22" fill="#1FD9FE" opacity=".05"/><circle cx="91" cy="64" r="22" fill="#1FD9FE" opacity=".05"/><circle cx="119" cy="166" r="22" fill="#1FD9FE" opacity=".05"/><circle cx="94" cy="163" r="22" fill="#1FD9FE" opacity=".05"/><circle cx="249" cy="68" r="22" fill="#1FD9FE" opacity=".05"/><circle cx="211" cy="117" r="22" fill="#1FD9FE" opacity=".05"/><circle cx="174" cy="203" r="22" fill="#1FD9FE" opacity=".05"/><circle cx="77" cy="49" r="22" fill="#1FD9FE" opacity=".05"/><circle cx="333" cy="110" r="22" fill="#1FD9FE" opacity=".05"/><circle cx="109" cy="98" r="22" fill="#1FD9FE" opacity=".05"/><circle cx="159" cy="197" r="22" fill="#1FD9FE" opacity=".05"/><circle cx="113" cy="80" r="22" fill="#1FD9FE" opacity=".05"/><circle cx="226" cy="132" r="22" fill="#1FD9FE" opacity=".05"/><line x1="278" y1="115" x2="242" y2="102" stroke="#1FD9FE" stroke-width="2" opacity=".75"/><line x1="208" y1="174" x2="197" y2="145" stroke="#1FD9FE" stroke-width="2" opacity=".75"/><line x1="242" y1="102" x2="197" y2="145" stroke="#1FD9FE" stroke-width="2" opacity=".75"/><line x1="176" y1="178" x2="146" y2="172" stroke="#1FD9FE" stroke-width="2" opacity=".75"/><line x1="146" y1="172" x2="99" y2="233" stroke="#1FD9FE" stroke-width="2" opacity=".75"/><line x1="208" y1="174" x2="176" y2="178" stroke="#1FD9FE" stroke-width="2" opacity=".75"/><line x1="146" y1="172" x2="136" y2="129" stroke="#1FD9FE" stroke-width="2" opacity=".75"/><line x1="99" y1="233" x2="110" y2="133" stroke="#1FD9FE" stroke-width="2" opacity=".75"/><line x1="136" y1="129" x2="110" y2="133" stroke="#1FD9FE" stroke-width="2" opacity=".75"/><line x1="197" y1="145" x2="161" y2="103" stroke="#1FD9FE" stroke-width="2" opacity=".75"/><line x1="136" y1="129" x2="161" y2="103" stroke="#1FD9FE" stroke-width="2" opacity=".75"/><line x1="242" y1="102" x2="179" y2="52" stroke="#1FD9FE" stroke-width="2" opacity=".75"/><line x1="179" y1="52" x2="161" y2="99" stroke="#1FD9FE" stroke-width="2" opacity=".75"/><line x1="161" y1="103" x2="161" y2="99" stroke="#1FD9FE" stroke-width="2" opacity=".75"/><line x1="110" y1="133" x2="57" y2="120" stroke="#1FD9FE" stroke-width="2" opacity=".75"/><line x1="72" y1="68" x2="72" y2="96" stroke="#1FD9FE" stroke-width="2" opacity=".75"/><line x1="72" y1="96" x2="91" y2="85" stroke="#1FD9FE" stroke-width="2" opacity=".75"/><line x1="161" y1="99" x2="91" y2="85" stroke="#1FD9FE" stroke-width="2" opacity=".75"/><line x1="57" y1="120" x2="72" y2="96" stroke="#1FD9FE" stroke-width="2" opacity=".75"/><circle cx="53" cy="64" r="4.5" fill="#E8EFF7"/><circle cx="168" cy="154" r="4.5" fill="#E8EFF7"/><circle cx="91" cy="64" r="4.5" fill="#E8EFF7"/><circle cx="119" cy="166" r="4.5" fill="#E8EFF7"/><circle cx="94" cy="163" r="4.5" fill="#E8EFF7"/><circle cx="249" cy="68" r="4.5" fill="#E8EFF7"/><circle cx="211" cy="117" r="4.5" fill="#E8EFF7"/><circle cx="174" cy="203" r="4.5" fill="#E8EFF7"/><circle cx="77" cy="49" r="4.5" fill="#E8EFF7"/><circle cx="333" cy="110" r="4.5" fill="#E8EFF7"/><circle cx="109" cy="98" r="4.5" fill="#E8EFF7"/><circle cx="159" cy="197" r="4.5" fill="#E8EFF7"/><circle cx="113" cy="80" r="4.5" fill="#E8EFF7"/><circle cx="226" cy="132" r="4.5" fill="#E8EFF7"/></g></svg>