<svg xmlns="http://www.w3.org/2000/svg" viewBox="0 0 400 250"><rect width="400" height="250" fill="#03142C"/><line x1="34" y1="70" x2="366" y2="70" stroke="#0E2A4D" stroke-width="1"/><line x1="34" y1="107" x2="366" y2="107" stroke="#0E2A4D" stroke-width="1"/><line x1="34" y1="143" x2="366" y2="143" stroke="#0E2A4D" stroke-width="1"/><line x1="34" y1="180" x2="366" y2="180" stroke="#0E2A4D" stroke-width="1"/><line x1="34" y1="216" x2="366" y2="216" stroke="#1B3A5C" stroke-width="1.5"/><line x1="34" y1="24" x2="34" y2="216" stroke="#1B3A5C" stroke-width="1.5"/><path d="M34.0,110.4 C36.9,108.9 45.6,104.2 51.5,101.4 C57.3,98.6 63.1,96.1 68.9,93.8 C74.8,91.4 80.6,89.3 86.4,87.3 C92.2,85.4 98.1,83.6 103.9,81.9 C109.7,80.2 115.5,78.7 121.4,77.3 C127.2,75.9 133.0,74.6 138.8,73.4 C144.7,72.2 150.5,71.1 156.3,70.1 C162.1,69.1 168.0,68.2 173.8,67.3 C179.6,66.5 185.4,65.7 191.3,65.0 C197.1,64.3 202.9,63.6 208.7,63.0 C214.6,62.4 220.4,61.8 226.2,61.3 C232.0,60.8 237.9,60.4 243.7,59.9 C249.5,59.5 255.3,59.1 261.2,58.7 C267.0,58.4 272.8,58.0 278.6,57.7 C284.5,57.4 290.3,57.1 296.1,56.9 C301.9,56.6 307.8,56.4 313.6,56.1 C319.4,55.9 325.2,55.7 331.1,55.5 C336.9,55.3 342.7,55.2 348.5,55.0 C354.4,54.9 363.1,54.6 366.0,54.6" fill="none" stroke="#1FD9FE" stroke-width="3"/><path d="M34.0,165.0 C36.9,163.3 45.6,157.6 51.5,154.3 C57.3,151.0 63.1,148.0 68.9,145.3 C74.8,142.5 80.6,140.0 86.4,137.6 C92.2,135.3 98.1,133.1 103.9,131.1 C109.7,129.2 115.5,127.4 121.4,125.7 C127.2,124.0 133.0,122.5 138.8,121.1 C144.7,119.6 150.5,118.4 156.3,117.2 C162.1,116.0 168.0,114.9 173.8,113.9 C179.6,112.8 185.4,111.9 191.3,111.1 C197.1,110.2 202.9,109.4 208.7,108.7 C214.6,108.0 220.4,107.3 226.2,106.7 C232.0,106.1 237.9,105.6 243.7,105.0 C249.5,104.5 255.3,104.1 261.2,103.6 C267.0,103.2 272.8,102.8 278.6,102.4 C284.5,102.1 290.3,101.7 296.1,101.4 C301.9,101.1 307.8,100.8 313.6,100.6 C319.4,100.3 325.2,100.1 331.1,99.8 C336.9,99.6 342.7,99.4 348.5,99.2 C354.4,99.0 363.1,98.8 366.0,98.7" fill="none" stroke="#29B8FF" stroke-width="3" stroke-dasharray="8 5"/></svg>