<svg xmlns="http://www.w3.org/2000/svg" viewBox="0 0 400 250"><rect width="400" height="250" fill="#03142C"/><rect x="110" y="36" width="27" height="27" rx="4" fill="#1FD9FE" opacity="0.97"/><rect x="141" y="36" width="27" height="27" rx="4" fill="#1FD9FE" opacity="0.73"/><rect x="171" y="36" width="27" height="27" rx="4" fill="#1FD9FE" opacity="0.73"/><rect x="202" y="36" width="27" height="27" rx="4" fill="#1FD9FE" opacity="0.73"/><rect x="232" y="36" width="27" height="27" rx="4" fill="#1FD9FE" opacity="0.73"/><rect x="262" y="36" width="27" height="27" rx="4" fill="#1FD9FE" opacity="0.73"/><rect x="110" y="66" width="27" height="27" rx="4" fill="#1FD9FE" opacity="0.73"/><rect x="141" y="66" width="27" height="27" rx="4" fill="#1FD9FE" opacity="0.97"/><rect x="171" y="66" width="27" height="27" rx="4" fill="#1FD9FE" opacity="0.22"/><rect x="202" y="66" width="27" height="27" rx="4" fill="#1FD9FE" opacity="0.67"/><rect x="232" y="66" width="27" height="27" rx="4" fill="#1FD9FE" opacity="0.81"/><rect x="262" y="66" width="27" height="27" rx="4" fill="#1FD9FE" opacity="0.32"/><rect x="110" y="96" width="27" height="27" rx="4" fill="#1FD9FE" opacity="0.73"/><rect x="141" y="96" width="27" height="27" rx="4" fill="#1FD9FE" opacity="0.22"/><rect x="171" y="96" width="27" height="27" rx="4" fill="#1FD9FE" opacity="0.97"/><rect x="202" y="96" width="27" height="27" rx="4" fill="#1FD9FE" opacity="0.59"/><rect x="232" y="96" width="27" height="27" rx="4" fill="#1FD9FE" opacity="0.42"/><rect x="262" y="96" width="27" height="27" rx="4" fill="#1FD9FE" opacity="0.84"/><rect x="110" y="126" width="27" height="27" rx="4" fill="#1FD9FE" opacity="0.73"/><rect x="141" y="126" width="27" height="27" rx="4" fill="#1FD9FE" opacity="0.67"/><rect x="171" y="126" width="27" height="27" rx="4" fill="#1FD9FE" opacity="0.59"/><rect x="202" y="126" width="27" height="27" rx="4" fill="#1FD9FE" opacity="0.97"/><rect x="232" y="126" width="27" height="27" rx="4" fill="#1FD9FE" opacity="0.42"/><rect x="262" y="126" width="27" height="27" rx="4" fill="#1FD9FE" opacity="0.33"/><rect x="110" y="157" width="27" height="27" rx="4" fill="#1FD9FE" opacity="0.73"/><rect x="141" y="157" width="27" height="27" rx="4" fill="#1FD9FE" opacity="0.81"/><rect x="171" y="157" width="27" height="27" rx="4" fill="#1FD9FE" opacity="0.42"/><rect x="202" y="157" width="27" height="27" rx="4" fill="#1FD9FE" opacity="0.42"/><rect x="232" y="157" width="27" height="27" rx="4" fill="#1FD9FE" opacity="0.97"/><rect x="262" y="157" width="27" height="27" rx="4" fill="#1FD9FE" opacity="0.72"/><rect x="110" y="187" width="27" height="27" rx="4" fill="#1FD9FE" opacity="0.73"/><rect x="141" y="187" width="27" height="27" rx="4" fill="#1FD9FE" opacity="0.32"/><rect x="171" y="187" width="27" height="27" rx="4" fill="#1FD9FE" opacity="0.84"/><rect x="202" y="187" width="27" height="27" rx="4" fill="#1FD9FE" opacity="0.33"/><rect x="232" y="187" width="27" height="27" rx="4" fill="#1FD9FE" opacity="0.72"/><rect x="262" y="187" width="27" height="27" rx="4" fill="#1FD9FE" opacity="0.97"/></svg>