<svg xmlns="http://www.w3.org/2000/svg" viewBox="0 0 400 250"><rect width="400" height="250" fill="#03142C"/><line x1="34" y1="70" x2="366" y2="70" stroke="#0E2A4D" stroke-width="1"/><line x1="34" y1="107" x2="366" y2="107" stroke="#0E2A4D" stroke-width="1"/><line x1="34" y1="143" x2="366" y2="143" stroke="#0E2A4D" stroke-width="1"/><line x1="34" y1="180" x2="366" y2="180" stroke="#0E2A4D" stroke-width="1"/><line x1="34" y1="216" x2="366" y2="216" stroke="#1B3A5C" stroke-width="1.5"/><line x1="34" y1="24" x2="34" y2="216" stroke="#1B3A5C" stroke-width="1.5"/><path d="M34.0,126.0 C39.0,124.1 54.1,119.3 64.2,114.4 C74.2,109.6 84.3,100.1 94.4,97.0 C104.4,93.9 114.5,96.1 124.5,95.9 C134.6,95.7 144.7,92.8 154.7,95.9 C164.8,99.0 174.8,111.1 184.9,114.4 C195.0,117.7 205.0,118.4 215.1,115.7 C225.2,113.1 235.2,101.6 245.3,98.3 C255.3,95.0 265.4,96.3 275.5,95.9 C285.5,95.5 295.6,93.3 305.6,95.9 C315.7,98.4 325.8,108.3 335.8,111.1 C345.9,113.8 361.0,112.1 366.0,112.3 L366,216 L34,216 Z" fill="#29B8FF" opacity="0.35"/><path d="M34.0,126.0 C39.0,124.1 54.1,119.3 64.2,114.4 C74.2,109.6 84.3,100.1 94.4,97.0 C104.4,93.9 114.5,96.1 124.5,95.9 C134.6,95.7 144.7,92.8 154.7,95.9 C164.8,99.0 174.8,111.1 184.9,114.4 C195.0,117.7 205.0,118.4 215.1,115.7 C225.2,113.1 235.2,101.6 245.3,98.3 C255.3,95.0 265.4,96.3 275.5,95.9 C285.5,95.5 295.6,93.3 305.6,95.9 C315.7,98.4 325.8,108.3 335.8,111.1 C345.9,113.8 361.0,112.1 366.0,112.3" fill="none" stroke="#29B8FF" stroke-width="2.5"/><path d="M34.0,125.2 C39.0,128.1 54.1,137.0 64.2,142.6 C74.2,148.3 84.3,158.4 94.4,159.0 C104.4,159.5 114.5,149.5 124.5,145.8 C134.6,142.0 144.7,139.2 154.7,136.5 C164.8,133.8 174.8,129.7 184.9,129.8 C195.0,130.0 205.0,136.8 215.1,137.4 C225.2,137.9 235.2,134.6 245.3,133.2 C255.3,131.8 265.4,130.2 275.5,129.0 C285.5,127.8 295.6,124.1 305.6,125.8 C315.7,127.5 325.8,136.6 335.8,139.2 C345.9,141.9 361.0,141.5 366.0,142.0 L366,216 L34,216 Z" fill="#1FD9FE" opacity="0.45"/><path d="M34.0,125.2 C39.0,128.1 54.1,137.0 64.2,142.6 C74.2,148.3 84.3,158.4 94.4,159.0 C104.4,159.5 114.5,149.5 124.5,145.8 C134.6,142.0 144.7,139.2 154.7,136.5 C164.8,133.8 174.8,129.7 184.9,129.8 C195.0,130.0 205.0,136.8 215.1,137.4 C225.2,137.9 235.2,134.6 245.3,133.2 C255.3,131.8 265.4,130.2 275.5,129.0 C285.5,127.8 295.6,124.1 305.6,125.8 C315.7,127.5 325.8,136.6 335.8,139.2 C345.9,141.9 361.0,141.5 366.0,142.0" fill="none" stroke="#1FD9FE" stroke-width="2.5"/></svg>