<svg xmlns="http://www.w3.org/2000/svg" viewBox="0 0 400 250"><rect width="400" height="250" fill="#03142C"/><line x1="34" y1="70" x2="366" y2="70" stroke="#0E2A4D" stroke-width="1"/><line x1="34" y1="107" x2="366" y2="107" stroke="#0E2A4D" stroke-width="1"/><line x1="34" y1="143" x2="366" y2="143" stroke="#0E2A4D" stroke-width="1"/><line x1="34" y1="180" x2="366" y2="180" stroke="#0E2A4D" stroke-width="1"/><line x1="34" y1="216" x2="366" y2="216" stroke="#1B3A5C" stroke-width="1.5"/><line x1="34" y1="24" x2="34" y2="216" stroke="#1B3A5C" stroke-width="1.5"/><circle cx="173" cy="127" r="4" fill="#1FD9FE" opacity=".75"/><circle cx="123" cy="104" r="4" fill="#1FD9FE" opacity=".75"/><circle cx="204" cy="111" r="4" fill="#1FD9FE" opacity=".75"/><circle cx="154" cy="119" r="4" fill="#1FD9FE" opacity=".75"/><circle cx="161" cy="135" r="4" fill="#1FD9FE" opacity=".75"/><circle cx="158" cy="105" r="4" fill="#1FD9FE" opacity=".75"/><circle cx="172" cy="162" r="4" fill="#1FD9FE" opacity=".75"/><circle cx="176" cy="109" r="4" fill="#1FD9FE" opacity=".75"/><circle cx="283" cy="120" r="4" fill="#1FD9FE" opacity=".75"/><circle cx="189" cy="128" r="4" fill="#1FD9FE" opacity=".75"/><circle cx="209" cy="147" r="4" fill="#1FD9FE" opacity=".75"/><circle cx="140" cy="169" r="4" fill="#1FD9FE" opacity=".75"/><circle cx="204" cy="108" r="4" fill="#1FD9FE" opacity=".75"/><circle cx="147" cy="111" r="4" fill="#1FD9FE" opacity=".75"/><circle cx="228" cy="144" r="4" fill="#1FD9FE" opacity=".75"/><circle cx="190" cy="164" r="4" fill="#1FD9FE" opacity=".75"/><circle cx="238" cy="140" r="4" fill="#1FD9FE" opacity=".75"/><circle cx="193" cy="132" r="4" fill="#1FD9FE" opacity=".75"/><circle cx="172" cy="135" r="4" fill="#1FD9FE" opacity=".75"/><circle cx="166" cy="150" r="4" fill="#1FD9FE" opacity=".75"/><circle cx="221" cy="105" r="4" fill="#1FD9FE" opacity=".75"/><circle cx="202" cy="126" r="4" fill="#1FD9FE" opacity=".75"/><circle cx="168" cy="98" r="4" fill="#1FD9FE" opacity=".75"/><circle cx="91" cy="134" r="4" fill="#1FD9FE" opacity=".75"/><circle cx="157" cy="123" r="4" fill="#1FD9FE" opacity=".75"/><circle cx="171" cy="108" r="4" fill="#1FD9FE" opacity=".75"/><circle cx="193" cy="173" r="4" fill="#1FD9FE" opacity=".75"/><circle cx="222" cy="146" r="4" fill="#1FD9FE" opacity=".75"/><circle cx="177" cy="137" r="4" fill="#1FD9FE" opacity=".75"/><circle cx="170" cy="129" r="4" fill="#1FD9FE" opacity=".75"/><circle cx="158" cy="118" r="4" fill="#1FD9FE" opacity=".75"/><circle cx="330" cy="156" r="4" fill="#1FD9FE" opacity=".75"/><circle cx="201" cy="143" r="4" fill="#1FD9FE" opacity=".75"/><circle cx="150" cy="137" r="4" fill="#1FD9FE" opacity=".75"/><circle cx="328" cy="75" r="4" fill="#F5A623"/><circle cx="328" cy="75" r="11" fill="none" stroke="#F5A623" stroke-width="2.5" opacity=".85"/><circle cx="72" cy="65" r="4" fill="#F5A623"/><circle cx="72" cy="65" r="11" fill="none" stroke="#F5A623" stroke-width="2.5" opacity=".85"/><circle cx="312" cy="185" r="4" fill="#F5A623"/><circle cx="312" cy="185" r="11" fill="none" stroke="#F5A623" stroke-width="2.5" opacity=".85"/></svg>