<svg xmlns="http://www.w3.org/2000/svg" viewBox="0 0 400 250"><rect width="400" height="250" fill="#03142C"/><path d="M200,39 A86,86 0 0 1 273,171 L239,150 A46,46 0 0 0 200,79 Z" fill="#1FD9FE" opacity="1" stroke="#03142C" stroke-width="3"/><path d="M273,171 A86,86 0 0 1 149,195 L173,162 A46,46 0 0 0 239,150 Z" fill="#29B8FF" opacity="0.85" stroke="#03142C" stroke-width="3"/><path d="M149,195 A86,86 0 0 1 122,88 L158,105 A46,46 0 0 0 173,162 Z" fill="#E8EFF7" opacity="0.5" stroke="#03142C" stroke-width="3"/><path d="M122,88 A86,86 0 0 1 200,39 L200,79 A46,46 0 0 0 158,105 Z" fill="#9FB3C8" opacity="0.5" stroke="#03142C" stroke-width="3"/></svg>