<svg xmlns="http://www.w3.org/2000/svg" viewBox="0 0 400 250"><rect width="400" height="250" fill="#03142C"/><path d="M64,125 C132,125 132,84 200,84" fill="none" stroke="#1B3A5C" stroke-width="2"/><path d="M64,125 C132,125 132,166 200,166" fill="none" stroke="#1B3A5C" stroke-width="2"/><path d="M200,84 C268,84 268,63 336,63" fill="none" stroke="#1B3A5C" stroke-width="2"/><path d="M200,84 C268,84 268,106 336,106" fill="none" stroke="#1B3A5C" stroke-width="2"/><path d="M200,166 C268,166 268,144 336,144" fill="none" stroke="#1B3A5C" stroke-width="2"/><path d="M200,166 C268,166 268,187 336,187" fill="none" stroke="#1B3A5C" stroke-width="2"/><circle cx="64" cy="125" r="14" fill="#03142C" stroke="#1FD9FE" stroke-width="3"/><circle cx="200" cy="84" r="12" fill="#03142C" stroke="#1FD9FE" stroke-width="3"/><circle cx="200" cy="166" r="12" fill="#03142C" stroke="#1FD9FE" stroke-width="3"/><circle cx="336" cy="63" r="10" fill="#03142C" stroke="#29B8FF" stroke-width="3"/><circle cx="336" cy="106" r="10" fill="#03142C" stroke="#29B8FF" stroke-width="3"/><circle cx="336" cy="144" r="10" fill="#03142C" stroke="#29B8FF" stroke-width="3"/><circle cx="336" cy="187" r="10" fill="#03142C" stroke="#29B8FF" stroke-width="3"/></svg>