<svg xmlns="http://www.w3.org/2000/svg" viewBox="0 0 400 250"><rect width="400" height="250" fill="#03142C"/><line x1="34" y1="70" x2="366" y2="70" stroke="#0E2A4D" stroke-width="1"/><line x1="34" y1="107" x2="366" y2="107" stroke="#0E2A4D" stroke-width="1"/><line x1="34" y1="143" x2="366" y2="143" stroke="#0E2A4D" stroke-width="1"/><line x1="34" y1="180" x2="366" y2="180" stroke="#0E2A4D" stroke-width="1"/><line x1="34" y1="216" x2="366" y2="216" stroke="#1B3A5C" stroke-width="1.5"/><line x1="34" y1="24" x2="34" y2="216" stroke="#1B3A5C" stroke-width="1.5"/><path d="M34,170.5 C160.0,179.6 220.00000000000003,61.30000000000001 366,70.4" fill="none" stroke="#E8EFF7" stroke-width="2" stroke-dasharray="7 6" opacity=".7"/><circle cx="341" cy="47" r="4.5" fill="#1FD9FE" opacity=".8"/><circle cx="341" cy="203" r="4.5" fill="none" stroke="#29B8FF" stroke-width="2" opacity=".8"/><circle cx="62" cy="94" r="4.5" fill="#1FD9FE" opacity=".8"/><circle cx="62" cy="179" r="4.5" fill="none" stroke="#29B8FF" stroke-width="2" opacity=".8"/><circle cx="210" cy="85" r="4.5" fill="#1FD9FE" opacity=".8"/><circle cx="210" cy="175" r="4.5" fill="none" stroke="#29B8FF" stroke-width="2" opacity=".8"/><circle cx="182" cy="87" r="4.5" fill="#1FD9FE" opacity=".8"/><circle cx="182" cy="187" r="4.5" fill="none" stroke="#29B8FF" stroke-width="2" opacity=".8"/><circle cx="42" cy="124" r="4.5" fill="#1FD9FE" opacity=".8"/><circle cx="42" cy="193" r="4.5" fill="none" stroke="#29B8FF" stroke-width="2" opacity=".8"/><circle cx="174" cy="74" r="4.5" fill="#1FD9FE" opacity=".8"/><circle cx="174" cy="201" r="4.5" fill="none" stroke="#29B8FF" stroke-width="2" opacity=".8"/><circle cx="153" cy="101" r="4.5" fill="#1FD9FE" opacity=".8"/><circle cx="153" cy="202" r="4.5" fill="none" stroke="#29B8FF" stroke-width="2" opacity=".8"/><circle cx="230" cy="54" r="4.5" fill="#1FD9FE" opacity=".8"/><circle cx="230" cy="198" r="4.5" fill="none" stroke="#29B8FF" stroke-width="2" opacity=".8"/><circle cx="356" cy="47" r="4.5" fill="#1FD9FE" opacity=".8"/><circle cx="356" cy="203" r="4.5" fill="none" stroke="#29B8FF" stroke-width="2" opacity=".8"/><circle cx="156" cy="74" r="4.5" fill="#1FD9FE" opacity=".8"/><circle cx="156" cy="196" r="4.5" fill="none" stroke="#29B8FF" stroke-width="2" opacity=".8"/><circle cx="138" cy="103" r="4.5" fill="#1FD9FE" opacity=".8"/><circle cx="138" cy="186" r="4.5" fill="none" stroke="#29B8FF" stroke-width="2" opacity=".8"/><circle cx="272" cy="48" r="4.5" fill="#1FD9FE" opacity=".8"/><circle cx="272" cy="192" r="4.5" fill="none" stroke="#29B8FF" stroke-width="2" opacity=".8"/><circle cx="247" cy="74" r="4.5" fill="#1FD9FE" opacity=".8"/><circle cx="247" cy="177" r="4.5" fill="none" stroke="#29B8FF" stroke-width="2" opacity=".8"/><circle cx="141" cy="65" r="4.5" fill="#1FD9FE" opacity=".8"/><circle cx="141" cy="172" r="4.5" fill="none" stroke="#29B8FF" stroke-width="2" opacity=".8"/><circle cx="72" cy="117" r="4.5" fill="#1FD9FE" opacity=".8"/><circle cx="72" cy="160" r="4.5" fill="none" stroke="#29B8FF" stroke-width="2" opacity=".8"/><circle cx="125" cy="81" r="4.5" fill="#1FD9FE" opacity=".8"/><circle cx="125" cy="203" r="4.5" fill="none" stroke="#29B8FF" stroke-width="2" opacity=".8"/><circle cx="144" cy="88" r="4.5" fill="#1FD9FE" opacity=".8"/><circle cx="144" cy="177" r="4.5" fill="none" stroke="#29B8FF" stroke-width="2" opacity=".8"/><circle cx="135" cy="69" r="4.5" fill="#1FD9FE" opacity=".8"/><circle cx="135" cy="189" r="4.5" fill="none" stroke="#29B8FF" stroke-width="2" opacity=".8"/><circle cx="120" cy="106" r="4.5" fill="#1FD9FE" opacity=".8"/><circle cx="120" cy="201" r="4.5" fill="none" stroke="#29B8FF" stroke-width="2" opacity=".8"/><circle cx="269" cy="47" r="4.5" fill="#1FD9FE" opacity=".8"/><circle cx="269" cy="181" r="4.5" fill="none" stroke="#29B8FF" stroke-width="2" opacity=".8"/><circle cx="215" cy="47" r="4.5" fill="#1FD9FE" opacity=".8"/><circle cx="215" cy="196" r="4.5" fill="none" stroke="#29B8FF" stroke-width="2" opacity=".8"/><circle cx="348" cy="53" r="4.5" fill="#1FD9FE" opacity=".8"/><circle cx="348" cy="203" r="4.5" fill="none" stroke="#29B8FF" stroke-width="2" opacity=".8"/><circle cx="53" cy="105" r="4.5" fill="#1FD9FE" opacity=".8"/><circle cx="53" cy="158" r="4.5" fill="none" stroke="#29B8FF" stroke-width="2" opacity=".8"/><circle cx="303" cy="47" r="4.5" fill="#1FD9FE" opacity=".8"/><circle cx="303" cy="203" r="4.5" fill="none" stroke="#29B8FF" stroke-width="2" opacity=".8"/><circle cx="301" cy="47" r="4.5" fill="#1FD9FE" opacity=".8"/><circle cx="301" cy="198" r="4.5" fill="none" stroke="#29B8FF" stroke-width="2" opacity=".8"/><circle cx="362" cy="47" r="4.5" fill="#1FD9FE" opacity=".8"/><circle cx="362" cy="192" r="4.5" fill="none" stroke="#29B8FF" stroke-width="2" opacity=".8"/></svg>