<svg xmlns="http://www.w3.org/2000/svg" viewBox="0 0 400 250"><rect width="400" height="250" fill="#03142C"/><line x1="34" y1="70" x2="366" y2="70" stroke="#0E2A4D" stroke-width="1"/><line x1="34" y1="107" x2="366" y2="107" stroke="#0E2A4D" stroke-width="1"/><line x1="34" y1="143" x2="366" y2="143" stroke="#0E2A4D" stroke-width="1"/><line x1="34" y1="180" x2="366" y2="180" stroke="#0E2A4D" stroke-width="1"/><line x1="34" y1="216" x2="366" y2="216" stroke="#1B3A5C" stroke-width="1.5"/><line x1="34" y1="24" x2="34" y2="216" stroke="#1B3A5C" stroke-width="1.5"/><circle cx="184" cy="135" r="4" fill="#1FD9FE" opacity=".75"/><circle cx="341" cy="92" r="4" fill="#1FD9FE" opacity=".75"/><circle cx="203" cy="128" r="4" fill="#1FD9FE" opacity=".75"/><circle cx="95" cy="164" r="4" fill="#1FD9FE" opacity=".75"/><circle cx="243" cy="105" r="4" fill="#1FD9FE" opacity=".75"/><circle cx="65" cy="184" r="4" fill="#1FD9FE" opacity=".75"/><circle cx="64" cy="158" r="4" fill="#1FD9FE" opacity=".75"/><circle cx="264" cy="137" r="4" fill="#1FD9FE" opacity=".75"/><circle cx="360" cy="61" r="4" fill="#1FD9FE" opacity=".75"/><circle cx="251" cy="112" r="4" fill="#1FD9FE" opacity=".75"/><circle cx="86" cy="192" r="4" fill="#1FD9FE" opacity=".75"/><circle cx="209" cy="153" r="4" fill="#1FD9FE" opacity=".75"/><circle cx="97" cy="177" r="4" fill="#1FD9FE" opacity=".75"/><circle cx="44" cy="182" r="4" fill="#1FD9FE" opacity=".75"/><circle cx="180" cy="122" r="4" fill="#1FD9FE" opacity=".75"/><circle cx="206" cy="124" r="4" fill="#1FD9FE" opacity=".75"/><circle cx="200" cy="125" r="4" fill="#1FD9FE" opacity=".75"/><circle cx="186" cy="149" r="4" fill="#1FD9FE" opacity=".75"/><circle cx="365" cy="58" r="4" fill="#1FD9FE" opacity=".75"/><circle cx="313" cy="89" r="4" fill="#1FD9FE" opacity=".75"/><circle cx="139" cy="165" r="4" fill="#1FD9FE" opacity=".75"/><circle cx="130" cy="176" r="4" fill="#1FD9FE" opacity=".75"/><circle cx="288" cy="112" r="4" fill="#1FD9FE" opacity=".75"/><circle cx="315" cy="104" r="4" fill="#1FD9FE" opacity=".75"/><circle cx="352" cy="70" r="4" fill="#1FD9FE" opacity=".75"/><circle cx="34" cy="198" r="4" fill="#1FD9FE" opacity=".75"/><circle cx="336" cy="94" r="4" fill="#1FD9FE" opacity=".75"/><circle cx="359" cy="90" r="4" fill="#1FD9FE" opacity=".75"/><circle cx="58" cy="169" r="4" fill="#1FD9FE" opacity=".75"/><circle cx="292" cy="117" r="4" fill="#1FD9FE" opacity=".75"/><circle cx="63" cy="183" r="4" fill="#1FD9FE" opacity=".75"/><circle cx="354" cy="74" r="4" fill="#1FD9FE" opacity=".75"/><circle cx="73" cy="184" r="4" fill="#1FD9FE" opacity=".75"/><circle cx="68" cy="196" r="4" fill="#1FD9FE" opacity=".75"/><circle cx="299" cy="120" r="4" fill="#1FD9FE" opacity=".75"/><circle cx="220" cy="130" r="4" fill="#1FD9FE" opacity=".75"/><circle cx="97" cy="152" r="4" fill="#1FD9FE" opacity=".75"/><circle cx="77" cy="163" r="4" fill="#1FD9FE" opacity=".75"/><circle cx="73" cy="176" r="4" fill="#1FD9FE" opacity=".75"/><circle cx="105" cy="174" r="4" fill="#1FD9FE" opacity=".75"/><circle cx="356" cy="71" r="4" fill="#1FD9FE" opacity=".75"/><circle cx="135" cy="133" r="4" fill="#1FD9FE" opacity=".75"/><line x1="34" y1="183.24" x2="366" y2="83.14000000000001" stroke="#E8EFF7" stroke-width="2" stroke-dasharray="7 6" opacity=".8"/></svg>