<svg xmlns="http://www.w3.org/2000/svg" viewBox="0 0 400 250"><rect width="400" height="250" fill="#03142C"/><line x1="34" y1="70" x2="366" y2="70" stroke="#0E2A4D" stroke-width="1"/><line x1="34" y1="107" x2="366" y2="107" stroke="#0E2A4D" stroke-width="1"/><line x1="34" y1="143" x2="366" y2="143" stroke="#0E2A4D" stroke-width="1"/><line x1="34" y1="180" x2="366" y2="180" stroke="#0E2A4D" stroke-width="1"/><line x1="34" y1="216" x2="366" y2="216" stroke="#1B3A5C" stroke-width="1.5"/><line x1="34" y1="24" x2="34" y2="216" stroke="#1B3A5C" stroke-width="1.5"/><path d="M34.0,131.3 C39.0,128.4 54.1,114.2 64.2,114.0 C74.2,113.8 84.3,127.3 94.4,130.1 C104.4,132.8 114.5,129.8 124.5,130.4 C134.6,131.0 144.7,134.8 154.7,133.7 C164.8,132.6 174.8,128.5 184.9,123.7 C195.0,118.9 205.0,103.5 215.1,104.8 C225.2,106.1 235.2,121.8 245.3,131.4 C255.3,141.0 265.4,160.9 275.5,162.3 C285.5,163.8 295.6,143.3 305.6,140.3 C315.7,137.4 325.8,146.9 335.8,144.7 C345.9,142.6 361.0,130.4 366.0,127.6" fill="none" stroke="#1FD9FE" stroke-width="3"/><path d="M34.0,166.6 C39.0,164.9 54.1,153.7 64.2,156.7 C74.2,159.7 84.3,180.4 94.4,184.7 C104.4,189.0 114.5,181.7 124.5,182.4 C134.6,183.0 144.7,187.6 154.7,188.7 C164.8,189.8 174.8,188.8 184.9,188.7 C195.0,188.6 205.0,188.2 215.1,188.2 C225.2,188.2 235.2,188.6 245.3,188.7 C255.3,188.8 265.4,188.7 275.5,188.7 C285.5,188.7 295.6,188.7 305.6,188.7 C315.7,188.7 325.8,188.7 335.8,188.7 C345.9,188.7 361.0,188.7 366.0,188.7" fill="none" stroke="#29B8FF" stroke-width="3"/><path d="M34.0,145.5 C39.0,146.9 54.1,153.7 64.2,154.0 C74.2,154.3 84.3,149.7 94.4,147.2 C104.4,144.7 114.5,135.6 124.5,139.0 C134.6,142.4 144.7,159.2 154.7,167.5 C164.8,175.7 174.8,188.8 184.9,188.7 C195.0,188.6 205.0,167.6 215.1,166.6 C225.2,165.5 235.2,178.7 245.3,182.4 C255.3,186.0 265.4,193.1 275.5,188.7 C285.5,184.3 295.6,161.3 305.6,156.2 C315.7,151.1 325.8,161.5 335.8,158.2 C345.9,154.8 361.0,139.8 366.0,136.1" fill="none" stroke="#9FB3C8" stroke-width="3"/></svg>