<svg xmlns="http://www.w3.org/2000/svg" viewBox="0 0 400 250"><rect width="400" height="250" fill="#03142C"/><polygon points="200,103 224,117 224,145 200,159 176,145 176,117" fill="none" stroke="#0E2A4D" stroke-width="1.2"/><polygon points="200,76 248,103 248,159 200,186 152,159 152,103" fill="none" stroke="#0E2A4D" stroke-width="1.2"/><polygon points="200,47 273,89 273,173 200,215 127,173 127,89" fill="none" stroke="#0E2A4D" stroke-width="1.2"/><polygon points="200,74 246,104 238,153 200,205 167,150 149,102" fill="#1FD9FE" opacity="0.4" stroke="#1FD9FE" stroke-width="2.5"/><polygon points="200,55 236,110 253,162 200,195 166,151 153,104" fill="#29B8FF" opacity="0.3" stroke="#29B8FF" stroke-width="2.5"/></svg>