<svg xmlns="http://www.w3.org/2000/svg" viewBox="0 0 400 250"><rect width="400" height="250" fill="#03142C"/><line x1="34" y1="70" x2="366" y2="70" stroke="#0E2A4D" stroke-width="1"/><line x1="34" y1="107" x2="366" y2="107" stroke="#0E2A4D" stroke-width="1"/><line x1="34" y1="143" x2="366" y2="143" stroke="#0E2A4D" stroke-width="1"/><line x1="34" y1="180" x2="366" y2="180" stroke="#0E2A4D" stroke-width="1"/><line x1="34" y1="216" x2="366" y2="216" stroke="#1B3A5C" stroke-width="1.5"/><line x1="34" y1="24" x2="34" y2="216" stroke="#1B3A5C" stroke-width="1.5"/><path d="M34.0,143.2 C36.9,141.6 45.6,136.5 51.5,133.4 C57.3,130.4 63.1,127.6 68.9,124.9 C74.8,122.2 80.6,119.8 86.4,117.5 C92.2,115.1 98.1,113.0 103.9,111.0 C109.7,109.0 115.5,107.1 121.4,105.3 C127.2,103.6 133.0,101.9 138.8,100.4 C144.7,98.9 150.5,97.4 156.3,96.1 C162.1,94.7 168.0,93.5 173.8,92.3 C179.6,91.2 185.4,90.1 191.3,89.1 C197.1,88.0 202.9,87.1 208.7,86.2 C214.6,85.3 220.4,84.5 226.2,83.7 C232.0,83.0 237.9,82.2 243.7,81.6 C249.5,80.9 255.3,80.3 261.2,79.7 C267.0,79.1 272.8,78.5 278.6,78.0 C284.5,77.5 290.3,77.0 296.1,76.6 C301.9,76.1 307.8,75.7 313.6,75.3 C319.4,74.9 325.2,74.6 331.1,74.2 C336.9,73.9 342.7,73.6 348.5,73.3 C354.4,73.0 363.1,72.6 366.0,72.4" fill="none" stroke="#1FD9FE" stroke-width="3.5"/><path d="M34.0,146.8 C36.9,145.9 45.6,143.0 51.5,141.3 C57.3,139.5 63.1,137.9 68.9,136.3 C74.8,134.7 80.6,133.3 86.4,131.9 C92.2,130.5 98.1,129.2 103.9,127.9 C109.7,126.7 115.5,125.5 121.4,124.4 C127.2,123.3 133.0,122.3 138.8,121.3 C144.7,120.3 150.5,119.4 156.3,118.5 C162.1,117.7 168.0,116.8 173.8,116.1 C179.6,115.3 185.4,114.5 191.3,113.9 C197.1,113.2 202.9,112.5 208.7,111.9 C214.6,111.3 220.4,110.7 226.2,110.1 C232.0,109.6 237.9,109.1 243.7,108.6 C249.5,108.1 255.3,107.6 261.2,107.2 C267.0,106.8 272.8,106.3 278.6,106.0 C284.5,105.6 290.3,105.2 296.1,104.9 C301.9,104.5 307.8,104.2 313.6,103.9 C319.4,103.6 325.2,103.3 331.1,103.0 C336.9,102.7 342.7,102.5 348.5,102.2 C354.4,102.0 363.1,101.6 366.0,101.5" fill="none" stroke="#9FB3C8" stroke-width="3" stroke-dasharray="8 5"/><circle cx="366" cy="72" r="6" fill="#1FD9FE"/><circle cx="366" cy="72" r="11" fill="none" stroke="#1FD9FE" stroke-width="2" opacity=".5"/></svg>