<svg xmlns="http://www.w3.org/2000/svg" viewBox="0 0 400 250"><rect width="400" height="250" fill="#03142C"/><line x1="34" y1="70" x2="366" y2="70" stroke="#0E2A4D" stroke-width="1"/><line x1="34" y1="107" x2="366" y2="107" stroke="#0E2A4D" stroke-width="1"/><line x1="34" y1="143" x2="366" y2="143" stroke="#0E2A4D" stroke-width="1"/><line x1="34" y1="180" x2="366" y2="180" stroke="#0E2A4D" stroke-width="1"/><line x1="34" y1="216" x2="366" y2="216" stroke="#1B3A5C" stroke-width="1.5"/><line x1="34" y1="24" x2="34" y2="216" stroke="#1B3A5C" stroke-width="1.5"/><rect x="43" y="142" width="29" height="74" rx="3" fill="#1FD9FE" opacity="0.9"/><rect x="90" y="158" width="29" height="58" rx="3" fill="#29B8FF" opacity="0.7"/><rect x="138" y="122" width="29" height="94" rx="3" fill="#1FD9FE" opacity="0.9"/><rect x="185" y="152" width="29" height="64" rx="3" fill="#29B8FF" opacity="0.7"/><rect x="233" y="162" width="29" height="54" rx="3" fill="#1FD9FE" opacity="0.9"/><rect x="280" y="122" width="29" height="94" rx="3" fill="#29B8FF" opacity="0.7"/><rect x="328" y="59" width="29" height="157" rx="3" fill="#1FD9FE" opacity="0.9"/></svg>