<svg xmlns="http://www.w3.org/2000/svg" viewBox="0 0 400 250"><rect width="400" height="250" fill="#03142C"/><line x1="34" y1="70" x2="366" y2="70" stroke="#0E2A4D" stroke-width="1"/><line x1="34" y1="107" x2="366" y2="107" stroke="#0E2A4D" stroke-width="1"/><line x1="34" y1="143" x2="366" y2="143" stroke="#0E2A4D" stroke-width="1"/><line x1="34" y1="180" x2="366" y2="180" stroke="#0E2A4D" stroke-width="1"/><line x1="34" y1="216" x2="366" y2="216" stroke="#1B3A5C" stroke-width="1.5"/><line x1="34" y1="24" x2="34" y2="216" stroke="#1B3A5C" stroke-width="1.5"/><line x1="44.375" y1="125.0" x2="44.375" y2="56.75" stroke="#1FD9FE" stroke-width="3"/><circle cx="44.375" cy="56.75" r="4" fill="#1FD9FE"/><line x1="65.125" y1="125.0" x2="65.125" y2="79.68469959114586" stroke="#1FD9FE" stroke-width="3"/><circle cx="65.125" cy="79.68469959114586" r="4" fill="#1FD9FE"/><line x1="85.875" y1="125.0" x2="85.875" y2="110.5742090424541" stroke="#1FD9FE" stroke-width="3"/><circle cx="85.875" cy="110.5742090424541" r="4" fill="#1FD9FE"/><line x1="106.625" y1="125.0" x2="106.625" y2="136.21944507298707" stroke="#1FD9FE" stroke-width="3"/><circle cx="106.625" cy="136.21944507298707" r="4" fill="#1FD9FE"/><line x1="127.375" y1="125.0" x2="127.375" y2="149.56843235775312" stroke="#1FD9FE" stroke-width="3"/><circle cx="127.375" cy="149.56843235775312" r="4" fill="#1FD9FE"/><line x1="148.125" y1="125.0" x2="148.125" y2="150.10431565166652" stroke="#1FD9FE" stroke-width="3"/><circle cx="148.125" cy="150.10431565166652" r="4" fill="#1FD9FE"/><line x1="168.875" y1="125.0" x2="168.875" y2="141.86783250159317" stroke="#1FD9FE" stroke-width="3"/><circle cx="168.875" cy="141.86783250159317" r="4" fill="#1FD9FE"/><line x1="189.625" y1="125.0" x2="189.625" y2="130.57122114315575" stroke="#1FD9FE" stroke-width="3"/><circle cx="189.625" cy="130.57122114315575" r="4" fill="#1FD9FE"/><line x1="210.375" y1="125.0" x2="210.375" y2="121.09129468595604" stroke="#1FD9FE" stroke-width="3"/><circle cx="210.375" cy="121.09129468595604" r="4" fill="#1FD9FE"/><line x1="231.125" y1="125.0" x2="231.125" y2="116.07504734316493" stroke="#1FD9FE" stroke-width="3"/><circle cx="231.125" cy="116.07504734316493" r="4" fill="#1FD9FE"/><line x1="251.875" y1="125.0" x2="251.875" y2="115.7684524409425" stroke="#1FD9FE" stroke-width="3"/><circle cx="251.875" cy="115.7684524409425" r="4" fill="#1FD9FE"/><line x1="272.625" y1="125.0" x2="272.625" y2="118.7238098149219" stroke="#1FD9FE" stroke-width="3"/><circle cx="272.625" cy="118.7238098149219" r="4" fill="#1FD9FE"/><line x1="293.375" y1="125.0" x2="293.375" y2="122.85380732147338" stroke="#1FD9FE" stroke-width="3"/><circle cx="293.375" cy="122.85380732147338" r="4" fill="#1FD9FE"/><line x1="314.125" y1="125.0" x2="314.125" y2="126.35708199964442" stroke="#1FD9FE" stroke-width="3"/><circle cx="314.125" cy="126.35708199964442" r="4" fill="#1FD9FE"/><line x1="334.875" y1="125.0" x2="334.875" y2="128.24073351333755" stroke="#1FD9FE" stroke-width="3"/><circle cx="334.875" cy="128.24073351333755" r="4" fill="#1FD9FE"/><line x1="355.625" y1="125.0" x2="355.625" y2="128.39375846637938" stroke="#1FD9FE" stroke-width="3"/><circle cx="355.625" cy="128.39375846637938" r="4" fill="#1FD9FE"/><rect x="34" y="103.16" width="332" height="44" fill="#29B8FF" opacity=".12"/><line x1="34" y1="125.0" x2="366" y2="125.0" stroke="#1B3A5C" stroke-width="1.5"/></svg>