<svg xmlns="http://www.w3.org/2000/svg" viewBox="0 0 400 250"><rect width="400" height="250" fill="#03142C"/><line x1="34" y1="70" x2="366" y2="70" stroke="#0E2A4D" stroke-width="1"/><line x1="34" y1="107" x2="366" y2="107" stroke="#0E2A4D" stroke-width="1"/><line x1="34" y1="143" x2="366" y2="143" stroke="#0E2A4D" stroke-width="1"/><line x1="34" y1="180" x2="366" y2="180" stroke="#0E2A4D" stroke-width="1"/><line x1="34" y1="216" x2="366" y2="216" stroke="#1B3A5C" stroke-width="1.5"/><line x1="34" y1="24" x2="34" y2="216" stroke="#1B3A5C" stroke-width="1.5"/><rect x="36" y="192" width="21" height="24" fill="#1FD9FE" opacity="0.52"/><rect x="59" y="177" width="21" height="39" fill="#1FD9FE" opacity="0.56"/><rect x="83" y="155" width="21" height="61" fill="#1FD9FE" opacity="0.62"/><rect x="107" y="127" width="21" height="89" fill="#1FD9FE" opacity="0.69"/><rect x="130" y="97" width="21" height="119" fill="#1FD9FE" opacity="0.78"/><rect x="154" y="71" width="21" height="145" fill="#1FD9FE" opacity="0.85"/><rect x="178" y="56" width="21" height="160" fill="#1FD9FE" opacity="0.89"/><rect x="202" y="56" width="21" height="160" fill="#1FD9FE" opacity="0.89"/><rect x="225" y="71" width="21" height="145" fill="#1FD9FE" opacity="0.85"/><rect x="249" y="97" width="21" height="119" fill="#1FD9FE" opacity="0.78"/><rect x="273" y="127" width="21" height="89" fill="#1FD9FE" opacity="0.69"/><rect x="296" y="155" width="21" height="61" fill="#1FD9FE" opacity="0.62"/><rect x="320" y="177" width="21" height="39" fill="#1FD9FE" opacity="0.56"/><rect x="344" y="192" width="21" height="24" fill="#1FD9FE" opacity="0.52"/></svg>