<svg xmlns="http://www.w3.org/2000/svg" viewBox="0 0 400 250"><rect width="400" height="250" fill="#03142C"/><line x1="34" y1="70" x2="366" y2="70" stroke="#0E2A4D" stroke-width="1"/><line x1="34" y1="107" x2="366" y2="107" stroke="#0E2A4D" stroke-width="1"/><line x1="34" y1="143" x2="366" y2="143" stroke="#0E2A4D" stroke-width="1"/><line x1="34" y1="180" x2="366" y2="180" stroke="#0E2A4D" stroke-width="1"/><line x1="34" y1="216" x2="366" y2="216" stroke="#1B3A5C" stroke-width="1.5"/><line x1="34" y1="24" x2="34" y2="216" stroke="#1B3A5C" stroke-width="1.5"/><path d="M34.0,52.2 C37.7,58.0 48.8,76.7 56.1,86.9 C63.5,97.0 70.9,105.4 78.3,113.1 C85.6,120.7 93.0,127.1 100.4,132.9 C107.8,138.7 115.2,143.5 122.5,147.8 C129.9,152.2 137.3,155.8 144.7,159.2 C152.0,162.5 159.4,165.2 166.8,167.7 C174.2,170.2 181.6,172.3 188.9,174.2 C196.3,176.1 203.7,177.6 211.1,179.0 C218.4,180.5 225.8,181.7 233.2,182.7 C240.6,183.8 248.0,184.7 255.3,185.5 C262.7,186.3 270.1,187.0 277.5,187.6 C284.8,188.3 292.2,188.8 299.6,189.2 C307.0,189.7 314.4,190.1 321.7,190.4 C329.1,190.8 336.5,191.1 343.9,191.3 C351.2,191.6 362.3,191.9 366.0,192.0" fill="none" stroke="#1FD9FE" stroke-width="3.5"/><circle cx="123" cy="148" r="9" fill="none" stroke="#F5A623" stroke-width="3"/><circle cx="123" cy="148" r="4" fill="#F5A623"/></svg>