<svg xmlns="http://www.w3.org/2000/svg" viewBox="0 0 400 250"><rect width="400" height="250" fill="#03142C"/><line x1="34" y1="70" x2="366" y2="70" stroke="#0E2A4D" stroke-width="1"/><line x1="34" y1="107" x2="366" y2="107" stroke="#0E2A4D" stroke-width="1"/><line x1="34" y1="143" x2="366" y2="143" stroke="#0E2A4D" stroke-width="1"/><line x1="34" y1="180" x2="366" y2="180" stroke="#0E2A4D" stroke-width="1"/><line x1="34" y1="216" x2="366" y2="216" stroke="#1B3A5C" stroke-width="1.5"/><line x1="34" y1="24" x2="34" y2="216" stroke="#1B3A5C" stroke-width="1.5"/><path d="M34.0,205.9 C35.4,205.5 39.7,204.5 42.5,203.6 C45.4,202.6 48.2,201.6 51.0,200.3 C53.9,199.0 56.7,197.6 59.5,195.9 C62.4,194.2 65.2,192.4 68.1,190.2 C70.9,188.0 73.7,185.6 76.6,182.9 C79.4,180.2 82.2,177.3 85.1,174.0 C87.9,170.8 90.8,167.3 93.6,163.5 C96.4,159.7 99.3,155.7 102.1,151.4 C104.9,147.2 107.8,142.7 110.6,138.2 C113.5,133.7 116.3,128.9 119.1,124.2 C122.0,119.5 124.8,114.7 127.6,110.1 C130.5,105.6 133.3,101.0 136.2,96.7 C139.0,92.5 141.8,88.4 144.7,84.8 C147.5,81.2 150.3,77.9 153.2,75.2 C156.0,72.4 158.9,70.1 161.7,68.5 C164.5,66.8 167.4,65.7 170.2,65.2 C173.0,64.7 175.9,64.9 178.7,65.7 C181.6,66.4 184.4,67.8 187.2,69.8 C190.1,71.7 192.9,74.3 195.7,77.2 C198.6,80.2 201.4,83.7 204.3,87.5 C207.1,91.3 209.9,95.5 212.8,99.8 C215.6,104.2 218.4,108.9 221.3,113.5 C224.1,118.1 227.0,122.9 229.8,127.6 C232.6,132.3 235.5,137.0 238.3,141.5 C241.1,145.9 244.0,150.3 246.8,154.5 C249.7,158.6 252.5,162.5 255.3,166.2 C258.2,169.8 261.0,173.2 263.8,176.3 C266.7,179.4 269.5,182.3 272.4,184.8 C275.2,187.4 278.0,189.7 280.9,191.7 C283.7,193.7 286.5,195.5 289.4,197.1 C292.2,198.7 295.1,200.0 297.9,201.2 C300.7,202.4 303.6,203.3 306.4,204.2 C309.2,205.1 312.1,205.7 314.9,206.3 C317.8,207.0 320.6,207.4 323.4,207.8 C326.3,208.3 329.1,208.6 331.9,208.8 C334.8,209.1 337.6,209.3 340.5,209.5 C343.3,209.7 346.1,209.8 349.0,209.9 C351.8,210.0 354.6,210.1 357.5,210.2 C360.3,210.2 364.6,210.3 366.0,210.3 L366,216 L34,216 Z" fill="#1FD9FE" opacity="0.5"/><path d="M34.0,205.9 C35.4,205.5 39.7,204.5 42.5,203.6 C45.4,202.6 48.2,201.6 51.0,200.3 C53.9,199.0 56.7,197.6 59.5,195.9 C62.4,194.2 65.2,192.4 68.1,190.2 C70.9,188.0 73.7,185.6 76.6,182.9 C79.4,180.2 82.2,177.3 85.1,174.0 C87.9,170.8 90.8,167.3 93.6,163.5 C96.4,159.7 99.3,155.7 102.1,151.4 C104.9,147.2 107.8,142.7 110.6,138.2 C113.5,133.7 116.3,128.9 119.1,124.2 C122.0,119.5 124.8,114.7 127.6,110.1 C130.5,105.6 133.3,101.0 136.2,96.7 C139.0,92.5 141.8,88.4 144.7,84.8 C147.5,81.2 150.3,77.9 153.2,75.2 C156.0,72.4 158.9,70.1 161.7,68.5 C164.5,66.8 167.4,65.7 170.2,65.2 C173.0,64.7 175.9,64.9 178.7,65.7 C181.6,66.4 184.4,67.8 187.2,69.8 C190.1,71.7 192.9,74.3 195.7,77.2 C198.6,80.2 201.4,83.7 204.3,87.5 C207.1,91.3 209.9,95.5 212.8,99.8 C215.6,104.2 218.4,108.9 221.3,113.5 C224.1,118.1 227.0,122.9 229.8,127.6 C232.6,132.3 235.5,137.0 238.3,141.5 C241.1,145.9 244.0,150.3 246.8,154.5 C249.7,158.6 252.5,162.5 255.3,166.2 C258.2,169.8 261.0,173.2 263.8,176.3 C266.7,179.4 269.5,182.3 272.4,184.8 C275.2,187.4 278.0,189.7 280.9,191.7 C283.7,193.7 286.5,195.5 289.4,197.1 C292.2,198.7 295.1,200.0 297.9,201.2 C300.7,202.4 303.6,203.3 306.4,204.2 C309.2,205.1 312.1,205.7 314.9,206.3 C317.8,207.0 320.6,207.4 323.4,207.8 C326.3,208.3 329.1,208.6 331.9,208.8 C334.8,209.1 337.6,209.3 340.5,209.5 C343.3,209.7 346.1,209.8 349.0,209.9 C351.8,210.0 354.6,210.1 357.5,210.2 C360.3,210.2 364.6,210.3 366.0,210.3" fill="none" stroke="#1FD9FE" stroke-width="2.5"/><path d="M34.0,209.3 C35.4,209.3 39.7,209.0 42.5,208.8 C45.4,208.6 48.2,208.3 51.0,208.0 C53.9,207.7 56.7,207.3 59.5,206.9 C62.4,206.5 65.2,206.0 68.1,205.4 C70.9,204.8 73.7,204.2 76.6,203.5 C79.4,202.7 82.2,201.9 85.1,200.9 C87.9,199.9 90.8,198.9 93.6,197.7 C96.4,196.4 99.3,195.1 102.1,193.6 C104.9,192.1 107.8,190.5 110.6,188.6 C113.5,186.8 116.3,184.8 119.1,182.6 C122.0,180.5 124.8,178.1 127.6,175.6 C130.5,173.1 133.3,170.4 136.2,167.5 C139.0,164.7 141.8,161.6 144.7,158.4 C147.5,155.2 150.3,151.9 153.2,148.4 C156.0,145.0 158.9,141.3 161.7,137.7 C164.5,134.1 167.4,130.3 170.2,126.5 C173.0,122.8 175.9,119.0 178.7,115.2 C181.6,111.5 184.4,107.7 187.2,104.2 C190.1,100.6 192.9,97.0 195.7,93.8 C198.6,90.5 201.4,87.3 204.3,84.4 C207.1,81.5 209.9,78.9 212.8,76.6 C215.6,74.2 218.4,72.2 221.3,70.5 C224.1,68.9 227.0,67.5 229.8,66.6 C232.6,65.7 235.5,65.1 238.3,65.0 C241.1,64.8 244.0,65.1 246.8,65.7 C249.7,66.4 252.5,67.4 255.3,68.9 C258.2,70.3 261.0,72.1 263.8,74.2 C266.7,76.2 269.5,78.7 272.4,81.4 C275.2,84.1 278.0,87.1 280.9,90.2 C283.7,93.4 286.5,96.8 289.4,100.3 C292.2,103.8 295.1,107.5 297.9,111.2 C300.7,114.9 303.6,118.7 306.4,122.5 C309.2,126.2 312.1,130.0 314.9,133.7 C317.8,137.4 320.6,141.1 323.4,144.6 C326.3,148.2 329.1,151.6 331.9,154.9 C334.8,158.2 337.6,161.4 340.5,164.4 C343.3,167.3 346.1,170.2 349.0,172.8 C351.8,175.5 354.6,177.9 357.5,180.2 C360.3,182.5 364.6,185.5 366.0,186.6 L366,216 L34,216 Z" fill="#29B8FF" opacity="0.4"/><path d="M34.0,209.3 C35.4,209.3 39.7,209.0 42.5,208.8 C45.4,208.6 48.2,208.3 51.0,208.0 C53.9,207.7 56.7,207.3 59.5,206.9 C62.4,206.5 65.2,206.0 68.1,205.4 C70.9,204.8 73.7,204.2 76.6,203.5 C79.4,202.7 82.2,201.9 85.1,200.9 C87.9,199.9 90.8,198.9 93.6,197.7 C96.4,196.4 99.3,195.1 102.1,193.6 C104.9,192.1 107.8,190.5 110.6,188.6 C113.5,186.8 116.3,184.8 119.1,182.6 C122.0,180.5 124.8,178.1 127.6,175.6 C130.5,173.1 133.3,170.4 136.2,167.5 C139.0,164.7 141.8,161.6 144.7,158.4 C147.5,155.2 150.3,151.9 153.2,148.4 C156.0,145.0 158.9,141.3 161.7,137.7 C164.5,134.1 167.4,130.3 170.2,126.5 C173.0,122.8 175.9,119.0 178.7,115.2 C181.6,111.5 184.4,107.7 187.2,104.2 C190.1,100.6 192.9,97.0 195.7,93.8 C198.6,90.5 201.4,87.3 204.3,84.4 C207.1,81.5 209.9,78.9 212.8,76.6 C215.6,74.2 218.4,72.2 221.3,70.5 C224.1,68.9 227.0,67.5 229.8,66.6 C232.6,65.7 235.5,65.1 238.3,65.0 C241.1,64.8 244.0,65.1 246.8,65.7 C249.7,66.4 252.5,67.4 255.3,68.9 C258.2,70.3 261.0,72.1 263.8,74.2 C266.7,76.2 269.5,78.7 272.4,81.4 C275.2,84.1 278.0,87.1 280.9,90.2 C283.7,93.4 286.5,96.8 289.4,100.3 C292.2,103.8 295.1,107.5 297.9,111.2 C300.7,114.9 303.6,118.7 306.4,122.5 C309.2,126.2 312.1,130.0 314.9,133.7 C317.8,137.4 320.6,141.1 323.4,144.6 C326.3,148.2 329.1,151.6 331.9,154.9 C334.8,158.2 337.6,161.4 340.5,164.4 C343.3,167.3 346.1,170.2 349.0,172.8 C351.8,175.5 354.6,177.9 357.5,180.2 C360.3,182.5 364.6,185.5 366.0,186.6" fill="none" stroke="#29B8FF" stroke-width="2.5"/></svg>