<svg xmlns="http://www.w3.org/2000/svg" viewBox="0 0 400 250"><rect width="400" height="250" fill="#03142C"/><line x1="34" y1="70" x2="366" y2="70" stroke="#0E2A4D" stroke-width="1"/><line x1="34" y1="107" x2="366" y2="107" stroke="#0E2A4D" stroke-width="1"/><line x1="34" y1="143" x2="366" y2="143" stroke="#0E2A4D" stroke-width="1"/><line x1="34" y1="180" x2="366" y2="180" stroke="#0E2A4D" stroke-width="1"/><line x1="34" y1="216" x2="366" y2="216" stroke="#1B3A5C" stroke-width="1.5"/><line x1="34" y1="24" x2="34" y2="216" stroke="#1B3A5C" stroke-width="1.5"/><path d="M34.0,216.0 C35.8,207.1 41.4,174.0 45.1,162.7 C48.8,151.5 52.4,152.6 56.1,148.6 C59.8,144.6 63.5,141.6 67.2,138.6 C70.9,135.6 74.6,133.1 78.3,130.7 C82.0,128.2 85.6,126.1 89.3,124.0 C93.0,121.9 96.7,119.9 100.4,118.1 C104.1,116.2 107.8,114.5 111.5,112.8 C115.2,111.1 118.8,109.5 122.5,108.0 C126.2,106.5 129.9,105.0 133.6,103.6 C137.3,102.2 141.0,100.8 144.7,99.5 C148.4,98.2 152.0,96.9 155.7,95.7 C159.4,94.4 163.1,93.2 166.8,92.0 C170.5,90.9 174.2,89.7 177.9,88.6 C181.6,87.5 185.2,86.4 188.9,85.4 C192.6,84.3 196.3,83.3 200.0,82.3 C203.7,81.3 207.4,80.3 211.1,79.3 C214.8,78.3 218.4,77.4 222.1,76.5 C225.8,75.5 229.5,74.6 233.2,73.7 C236.9,72.8 240.6,72.0 244.3,71.1 C248.0,70.2 251.6,69.4 255.3,68.5 C259.0,67.7 262.7,66.9 266.4,66.1 C270.1,65.3 273.8,64.5 277.5,63.7 C281.2,62.9 284.8,62.1 288.5,61.4 C292.2,60.6 295.9,59.8 299.6,59.1 C303.3,58.4 307.0,57.6 310.7,56.9 C314.4,56.2 318.0,55.5 321.7,54.8 C325.4,54.1 329.1,53.4 332.8,52.7 C336.5,52.0 340.2,51.3 343.9,50.7 C347.6,50.0 351.2,49.3 354.9,48.7 C358.6,48.0 364.2,47.1 366.0,46.7 L366,216 L34,216 Z" fill="#1FD9FE" opacity=".12"/><line x1="34" y1="216" x2="366" y2="34" stroke="#9FB3C8" stroke-width="2" stroke-dasharray="6 6" opacity=".6"/><path d="M34.0,216.0 C35.8,207.1 41.4,174.0 45.1,162.7 C48.8,151.5 52.4,152.6 56.1,148.6 C59.8,144.6 63.5,141.6 67.2,138.6 C70.9,135.6 74.6,133.1 78.3,130.7 C82.0,128.2 85.6,126.1 89.3,124.0 C93.0,121.9 96.7,119.9 100.4,118.1 C104.1,116.2 107.8,114.5 111.5,112.8 C115.2,111.1 118.8,109.5 122.5,108.0 C126.2,106.5 129.9,105.0 133.6,103.6 C137.3,102.2 141.0,100.8 144.7,99.5 C148.4,98.2 152.0,96.9 155.7,95.7 C159.4,94.4 163.1,93.2 166.8,92.0 C170.5,90.9 174.2,89.7 177.9,88.6 C181.6,87.5 185.2,86.4 188.9,85.4 C192.6,84.3 196.3,83.3 200.0,82.3 C203.7,81.3 207.4,80.3 211.1,79.3 C214.8,78.3 218.4,77.4 222.1,76.5 C225.8,75.5 229.5,74.6 233.2,73.7 C236.9,72.8 240.6,72.0 244.3,71.1 C248.0,70.2 251.6,69.4 255.3,68.5 C259.0,67.7 262.7,66.9 266.4,66.1 C270.1,65.3 273.8,64.5 277.5,63.7 C281.2,62.9 284.8,62.1 288.5,61.4 C292.2,60.6 295.9,59.8 299.6,59.1 C303.3,58.4 307.0,57.6 310.7,56.9 C314.4,56.2 318.0,55.5 321.7,54.8 C325.4,54.1 329.1,53.4 332.8,52.7 C336.5,52.0 340.2,51.3 343.9,50.7 C347.6,50.0 351.2,49.3 354.9,48.7 C358.6,48.0 364.2,47.1 366.0,46.7" fill="none" stroke="#1FD9FE" stroke-width="3.5"/></svg>