<svg xmlns="http://www.w3.org/2000/svg" viewBox="0 0 400 250"><rect width="400" height="250" fill="#03142C"/><line x1="34" y1="70" x2="366" y2="70" stroke="#0E2A4D" stroke-width="1"/><line x1="34" y1="107" x2="366" y2="107" stroke="#0E2A4D" stroke-width="1"/><line x1="34" y1="143" x2="366" y2="143" stroke="#0E2A4D" stroke-width="1"/><line x1="34" y1="180" x2="366" y2="180" stroke="#0E2A4D" stroke-width="1"/><line x1="34" y1="216" x2="366" y2="216" stroke="#1B3A5C" stroke-width="1.5"/><line x1="34" y1="24" x2="34" y2="216" stroke="#1B3A5C" stroke-width="1.5"/><path d="M255.3,146.6 C259.0,141.9 270.1,126.1 277.5,118.4 C284.8,110.7 292.2,106.0 299.6,100.6 C307.0,95.1 314.4,88.0 321.7,85.5 C329.1,83.0 336.5,86.4 343.9,85.6 C351.2,84.8 362.3,81.6 366.0,80.8 L366.0,180.9 L343.9,169.3 L321.7,152.8 L299.6,151.5 L277.5,153.0 L255.3,164.8 Z" fill="#29B8FF" opacity=".2"/><path d="M34.0,131.5 C37.7,128.9 48.8,116.8 56.1,115.7 C63.5,114.6 70.9,121.8 78.3,124.9 C85.6,127.9 93.0,134.1 100.4,134.0 C107.8,133.9 115.2,125.7 122.5,124.1 C129.9,122.6 137.3,123.5 144.7,124.9 C152.0,126.2 159.4,130.0 166.8,132.0 C174.2,134.0 181.6,134.6 188.9,136.8 C196.3,139.1 203.7,141.2 211.1,145.5 C218.4,149.8 225.8,160.7 233.2,162.5 C240.6,164.2 251.6,156.9 255.3,155.7" fill="none" stroke="#1FD9FE" stroke-width="3"/><path d="M255.3,155.7 C259.0,152.4 270.1,140.6 277.5,135.7 C284.8,130.7 292.2,128.8 299.6,126.0 C307.0,123.3 314.4,118.9 321.7,119.2 C329.1,119.4 336.5,125.5 343.9,127.5 C351.2,129.4 362.3,130.3 366.0,130.8" fill="none" stroke="#29B8FF" stroke-width="3" stroke-dasharray="8 5"/><line x1="255" y1="34" x2="255" y2="216" stroke="#E8EFF7" stroke-width="1.5" stroke-dasharray="4 5" opacity=".5"/></svg>