<svg xmlns="http://www.w3.org/2000/svg" viewBox="0 0 400 250"><rect width="400" height="250" fill="#03142C"/><line x1="34" y1="70" x2="366" y2="70" stroke="#0E2A4D" stroke-width="1"/><line x1="34" y1="107" x2="366" y2="107" stroke="#0E2A4D" stroke-width="1"/><line x1="34" y1="143" x2="366" y2="143" stroke="#0E2A4D" stroke-width="1"/><line x1="34" y1="180" x2="366" y2="180" stroke="#0E2A4D" stroke-width="1"/><line x1="34" y1="216" x2="366" y2="216" stroke="#1B3A5C" stroke-width="1.5"/><line x1="34" y1="24" x2="34" y2="216" stroke="#1B3A5C" stroke-width="1.5"/><path d="M34.0,146.0 C38.3,145.3 51.0,142.1 59.5,141.8 C68.1,141.5 76.6,144.9 85.1,144.3 C93.6,143.8 102.1,139.5 110.6,138.7 C119.1,137.8 127.6,139.5 136.2,139.5 C144.7,139.4 153.2,135.3 161.7,138.3 C170.2,141.4 178.7,150.9 187.2,157.8 C195.7,164.7 204.3,176.0 212.8,179.6 C221.3,183.2 234.1,179.6 238.3,179.6" fill="none" stroke="#1FD9FE" stroke-width="3"/><path d="M238.3,179.6 C242.6,176.5 255.3,161.3 263.8,161.3 C272.4,161.3 280.9,176.5 289.4,179.6 C297.9,182.7 306.4,179.6 314.9,179.6 C323.4,179.6 331.9,180.2 340.5,179.6 C349.0,179.0 361.7,176.7 366.0,176.1" fill="none" stroke="#1FD9FE" stroke-width="3" opacity=".25"/><circle cx="238" cy="180" r="6" fill="#1FD9FE"/><circle cx="328" cy="60" r="19" fill="#1FD9FE" opacity=".15" stroke="#1FD9FE" stroke-width="2"/><polygon points="323,52 323,68 337,60" fill="#1FD9FE"/></svg>