<svg xmlns="http://www.w3.org/2000/svg" viewBox="0 0 400 250"><rect width="400" height="250" fill="#03142C"/><line x1="34" y1="70" x2="366" y2="70" stroke="#0E2A4D" stroke-width="1"/><line x1="34" y1="107" x2="366" y2="107" stroke="#0E2A4D" stroke-width="1"/><line x1="34" y1="143" x2="366" y2="143" stroke="#0E2A4D" stroke-width="1"/><line x1="34" y1="180" x2="366" y2="180" stroke="#0E2A4D" stroke-width="1"/><line x1="34" y1="216" x2="366" y2="216" stroke="#1B3A5C" stroke-width="1.5"/><line x1="34" y1="24" x2="34" y2="216" stroke="#1B3A5C" stroke-width="1.5"/><path d="M34.0,143.2 C39.0,141.8 54.1,137.7 64.2,134.9 C74.2,132.2 84.3,129.4 94.4,126.7 C104.4,123.9 114.5,121.1 124.5,118.4 C134.6,115.6 144.7,112.9 154.7,110.1 C164.8,107.4 174.8,104.6 184.9,101.8 C195.0,99.1 205.0,96.3 215.1,93.6 C225.2,90.8 235.2,88.0 245.3,85.3 C255.3,82.5 265.4,79.8 275.5,77.0 C285.5,74.3 295.6,71.5 305.6,68.7 C315.7,66.0 325.8,63.2 335.8,60.5 C345.9,57.7 361.0,53.6 366.0,52.2 L366.0,99.5 L335.8,107.8 L305.6,116.1 L275.5,124.3 L245.3,132.6 L215.1,140.9 L184.9,149.2 L154.7,157.4 L124.5,165.7 L94.4,174.0 L64.2,182.2 L34.0,190.5 Z" fill="#1FD9FE" opacity=".15"/><circle cx="47" cy="155" r="4" fill="#29B8FF" opacity=".8"/><circle cx="82" cy="155" r="4" fill="#29B8FF" opacity=".8"/><circle cx="257" cy="93" r="4" fill="#29B8FF" opacity=".8"/><circle cx="184" cy="126" r="4" fill="#29B8FF" opacity=".8"/><circle cx="40" cy="168" r="4" fill="#29B8FF" opacity=".8"/><circle cx="158" cy="118" r="4" fill="#29B8FF" opacity=".8"/><circle cx="216" cy="106" r="4" fill="#29B8FF" opacity=".8"/><circle cx="178" cy="142" r="4" fill="#29B8FF" opacity=".8"/><circle cx="316" cy="75" r="4" fill="#29B8FF" opacity=".8"/><circle cx="159" cy="150" r="4" fill="#29B8FF" opacity=".8"/><circle cx="204" cy="120" r="4" fill="#29B8FF" opacity=".8"/><circle cx="290" cy="92" r="4" fill="#29B8FF" opacity=".8"/><circle cx="202" cy="117" r="4" fill="#29B8FF" opacity=".8"/><circle cx="159" cy="152" r="4" fill="#29B8FF" opacity=".8"/><circle cx="54" cy="142" r="4" fill="#29B8FF" opacity=".8"/><circle cx="313" cy="99" r="4" fill="#29B8FF" opacity=".8"/><circle cx="329" cy="85" r="4" fill="#29B8FF" opacity=".8"/><circle cx="68" cy="142" r="4" fill="#29B8FF" opacity=".8"/><circle cx="228" cy="95" r="4" fill="#29B8FF" opacity=".8"/><circle cx="260" cy="123" r="4" fill="#29B8FF" opacity=".8"/><circle cx="241" cy="98" r="4" fill="#29B8FF" opacity=".8"/><circle cx="332" cy="92" r="4" fill="#29B8FF" opacity=".8"/><circle cx="210" cy="110" r="4" fill="#29B8FF" opacity=".8"/><circle cx="89" cy="136" r="4" fill="#29B8FF" opacity=".8"/><circle cx="293" cy="115" r="4" fill="#29B8FF" opacity=".8"/><circle cx="230" cy="119" r="4" fill="#29B8FF" opacity=".8"/><circle cx="96" cy="145" r="4" fill="#29B8FF" opacity=".8"/><circle cx="356" cy="76" r="4" fill="#29B8FF" opacity=".8"/><circle cx="72" cy="157" r="4" fill="#29B8FF" opacity=".8"/><circle cx="293" cy="76" r="4" fill="#29B8FF" opacity=".8"/><line x1="34" y1="166.86" x2="366" y2="75.85999999999999" stroke="#1FD9FE" stroke-width="3"/></svg>