<svg xmlns="http://www.w3.org/2000/svg" viewBox="0 0 400 250"><rect width="400" height="250" fill="#03142C"/><line x1="34" y1="70" x2="366" y2="70" stroke="#0E2A4D" stroke-width="1"/><line x1="34" y1="107" x2="366" y2="107" stroke="#0E2A4D" stroke-width="1"/><line x1="34" y1="143" x2="366" y2="143" stroke="#0E2A4D" stroke-width="1"/><line x1="34" y1="180" x2="366" y2="180" stroke="#0E2A4D" stroke-width="1"/><line x1="34" y1="216" x2="366" y2="216" stroke="#1B3A5C" stroke-width="1.5"/><line x1="34" y1="24" x2="34" y2="216" stroke="#1B3A5C" stroke-width="1.5"/><path d="M34.0,107.2 C39.0,105.7 54.1,99.6 64.2,98.4 C74.2,97.1 84.3,96.4 94.4,99.7 C104.4,103.1 114.5,118.4 124.5,118.3 C134.6,118.2 144.7,105.7 154.7,99.2 C164.8,92.6 174.8,82.5 184.9,79.0 C195.0,75.5 205.0,78.4 215.1,78.2 C225.2,78.0 235.2,75.0 245.3,77.8 C255.3,80.7 265.4,86.8 275.5,95.1 C285.5,103.4 295.6,122.1 305.6,127.7 C315.7,133.3 325.8,129.4 335.8,128.6 C345.9,127.9 361.0,124.0 366.0,123.0 L366.0,188.6 L335.8,194.2 L305.6,193.2 L275.5,160.7 L245.3,143.4 L215.1,143.7 L184.9,144.5 L154.7,164.7 L124.5,183.9 L94.4,165.2 L64.2,163.9 L34.0,172.7 Z" fill="#1FD9FE" opacity=".18"/><path d="M34.0,140.0 C39.0,138.5 54.1,132.4 64.2,131.1 C74.2,129.9 84.3,129.2 94.4,132.5 C104.4,135.8 114.5,151.2 124.5,151.1 C134.6,151.0 144.7,138.5 154.7,131.9 C164.8,125.4 174.8,115.2 184.9,111.7 C195.0,108.2 205.0,111.1 215.1,110.9 C225.2,110.7 235.2,107.8 245.3,110.6 C255.3,113.4 265.4,119.6 275.5,127.9 C285.5,136.2 295.6,154.9 305.6,160.4 C315.7,166.0 325.8,162.2 335.8,161.4 C345.9,160.6 361.0,156.7 366.0,155.8" fill="none" stroke="#1FD9FE" stroke-width="3"/></svg>