<svg xmlns="http://www.w3.org/2000/svg" viewBox="0 0 400 250"><rect width="400" height="250" fill="#03142C"/><line x1="34" y1="70" x2="366" y2="70" stroke="#0E2A4D" stroke-width="1"/><line x1="34" y1="107" x2="366" y2="107" stroke="#0E2A4D" stroke-width="1"/><line x1="34" y1="143" x2="366" y2="143" stroke="#0E2A4D" stroke-width="1"/><line x1="34" y1="180" x2="366" y2="180" stroke="#0E2A4D" stroke-width="1"/><line x1="34" y1="216" x2="366" y2="216" stroke="#1B3A5C" stroke-width="1.5"/><line x1="34" y1="24" x2="34" y2="216" stroke="#1B3A5C" stroke-width="1.5"/><path d="M34.0,152.3 C38.3,152.3 51.0,156.8 59.5,152.3 C68.1,147.8 76.6,130.6 85.1,125.2 C93.6,119.8 102.1,123.0 110.6,120.1 C119.1,117.2 127.6,109.8 136.2,107.6 C144.7,105.4 153.2,105.7 161.7,106.8 C170.2,107.9 178.7,114.4 187.2,114.4 C195.7,114.4 204.3,108.1 212.8,106.8 C221.3,105.5 229.8,106.8 238.3,106.8 C246.8,106.8 255.3,106.8 263.8,106.8 C272.4,106.8 280.9,106.8 289.4,106.8 C297.9,106.8 306.4,106.1 314.9,106.8 C323.4,107.5 331.9,106.3 340.5,110.8 C349.0,115.2 361.7,129.6 366.0,133.4" fill="none" stroke="#1FD9FE" stroke-width="3"/><circle cx="136" cy="49" r="5.5" fill="#F5A623"/><circle cx="136" cy="49" r="12" fill="none" stroke="#F5A623" stroke-width="2" opacity=".7"/><circle cx="289" cy="201" r="5.5" fill="#F5A623"/><circle cx="289" cy="201" r="12" fill="none" stroke="#F5A623" stroke-width="2" opacity=".7"/></svg>