<svg xmlns="http://www.w3.org/2000/svg" viewBox="0 0 400 250"><rect width="400" height="250" fill="#03142C"/><path d="M34.0,95.9 C36.4,95.6 43.6,94.9 48.4,94.5 C53.2,94.0 58.1,93.5 62.9,93.0 C67.7,92.6 72.5,92.1 77.3,91.6 C82.1,91.1 86.9,90.7 91.7,90.2 C96.6,89.7 101.4,89.2 106.2,88.8 C111.0,88.3 115.8,87.8 120.6,87.3 C125.4,86.9 130.2,86.4 135.0,85.9 C139.9,85.4 144.7,85.0 149.5,84.5 C154.3,84.0 159.1,83.5 163.9,83.1 C168.7,82.6 173.5,82.1 178.3,81.6 C183.2,81.2 188.0,80.7 192.8,80.2 C197.6,79.7 202.4,79.3 207.2,78.8 C212.0,78.3 216.8,77.8 221.7,77.4 C226.5,76.9 231.3,76.4 236.1,75.9 C240.9,75.5 245.7,75.0 250.5,74.5 C255.3,74.0 260.1,73.6 265.0,73.1 C269.8,72.6 274.6,72.1 279.4,71.7 C284.2,71.2 289.0,70.7 293.8,70.2 C298.6,69.8 303.4,69.3 308.3,68.8 C313.1,68.3 317.9,67.9 322.7,67.4 C327.5,66.9 332.3,66.4 337.1,66.0 C341.9,65.5 346.8,65.0 351.6,64.5 C356.4,64.1 363.6,63.4 366.0,63.1" fill="none" stroke="#1FD9FE" stroke-width="2.5"/><line x1="34" y1="99.52" x2="366" y2="99.52" stroke="#0E2A4D" stroke-width="1"/><path d="M34.0,125.0 C35.6,124.0 40.3,121.0 43.5,119.2 C46.6,117.4 49.8,115.7 53.0,114.2 C56.1,112.8 59.3,111.5 62.5,110.6 C65.6,109.7 68.8,109.0 71.9,108.8 C75.1,108.5 78.3,108.6 81.4,109.0 C84.6,109.5 87.8,110.3 90.9,111.3 C94.1,112.4 97.2,113.8 100.4,115.4 C103.6,116.9 106.7,118.8 109.9,120.6 C113.0,122.5 116.2,124.6 119.4,126.5 C122.5,128.4 125.7,130.4 128.9,132.1 C132.0,133.8 135.2,135.5 138.3,136.8 C141.5,138.2 144.7,139.3 147.8,140.1 C151.0,140.8 154.2,141.3 157.3,141.4 C160.5,141.4 163.6,141.2 166.8,140.6 C170.0,140.0 173.1,139.0 176.3,137.8 C179.4,136.6 182.6,135.0 185.8,133.4 C188.9,131.8 192.1,129.8 195.3,127.9 C198.4,126.0 201.6,124.0 204.7,122.1 C207.9,120.2 211.1,118.2 214.2,116.6 C217.4,115.0 220.6,113.4 223.7,112.2 C226.9,111.0 230.0,110.0 233.2,109.4 C236.4,108.8 239.5,108.6 242.7,108.6 C245.8,108.7 249.0,109.2 252.2,109.9 C255.3,110.7 258.5,111.8 261.7,113.2 C264.8,114.5 268.0,116.2 271.1,117.9 C274.3,119.6 277.5,121.6 280.6,123.5 C283.8,125.4 287.0,127.5 290.1,129.4 C293.3,131.2 296.4,133.1 299.6,134.6 C302.8,136.2 305.9,137.6 309.1,138.7 C312.2,139.7 315.4,140.5 318.6,141.0 C321.7,141.4 324.9,141.5 328.1,141.2 C331.2,141.0 334.4,140.3 337.5,139.4 C340.7,138.5 343.9,137.2 347.0,135.8 C350.2,134.3 353.4,132.6 356.5,130.8 C359.7,129.0 364.4,126.0 366.0,125.0" fill="none" stroke="#1FD9FE" stroke-width="2.5"/><line x1="34" y1="150.48000000000002" x2="366" y2="150.48000000000002" stroke="#0E2A4D" stroke-width="1"/><path d="M34.0,173.8 C36.0,173.0 42.2,168.4 46.3,168.9 C50.4,169.3 54.5,176.2 58.6,176.8 C62.7,177.3 66.8,173.6 70.9,172.1 C75.0,170.7 79.1,167.4 83.2,168.0 C87.3,168.6 91.4,175.0 95.5,175.6 C99.6,176.2 103.7,172.3 107.8,171.7 C111.9,171.1 116.0,172.2 120.1,171.8 C124.2,171.4 128.3,167.3 132.4,169.4 C136.5,171.5 140.6,182.3 144.7,184.4 C148.8,186.5 152.9,184.9 157.0,182.0 C161.1,179.1 165.2,168.7 169.3,166.9 C173.4,165.2 177.5,169.2 181.6,171.5 C185.7,173.7 189.8,180.3 193.9,180.3 C198.0,180.3 202.0,171.3 206.1,171.5 C210.2,171.8 214.3,180.8 218.4,182.0 C222.5,183.1 226.6,179.3 230.7,178.5 C234.8,177.7 238.9,176.6 243.0,177.0 C247.1,177.4 251.2,180.0 255.3,180.9 C259.4,181.8 263.5,183.4 267.6,182.5 C271.7,181.7 275.8,177.4 279.9,175.8 C284.0,174.3 288.1,172.7 292.2,173.3 C296.3,173.9 300.4,179.3 304.5,179.3 C308.6,179.2 312.7,175.1 316.8,173.0 C320.9,171.0 325.0,165.4 329.1,167.2 C333.2,169.0 337.3,181.9 341.4,184.1 C345.5,186.2 349.6,180.1 353.7,180.0 C357.8,179.9 364.0,182.8 366.0,183.4" fill="none" stroke="#9FB3C8" stroke-width="2.5"/><line x1="34" y1="201.44" x2="366" y2="201.44" stroke="#0E2A4D" stroke-width="1"/></svg>