<svg xmlns="http://www.w3.org/2000/svg" viewBox="0 0 400 250"><rect width="400" height="250" fill="#03142C"/><line x1="34" y1="70" x2="366" y2="70" stroke="#0E2A4D" stroke-width="1"/><line x1="34" y1="107" x2="366" y2="107" stroke="#0E2A4D" stroke-width="1"/><line x1="34" y1="143" x2="366" y2="143" stroke="#0E2A4D" stroke-width="1"/><line x1="34" y1="180" x2="366" y2="180" stroke="#0E2A4D" stroke-width="1"/><line x1="34" y1="216" x2="366" y2="216" stroke="#1B3A5C" stroke-width="1.5"/><line x1="34" y1="24" x2="34" y2="216" stroke="#1B3A5C" stroke-width="1.5"/><line x1="89.33333333333334" y1="185.39702497181042" x2="89.33333333333334" y2="57.689842782513864" stroke="#1FD9FE" stroke-width="2"/><line x1="72.41025641025642" y1="185.39702497181042" x2="106.25641025641026" y2="185.39702497181042" stroke="#1FD9FE" stroke-width="2"/><line x1="72.41025641025642" y1="57.689842782513864" x2="106.25641025641026" y2="57.689842782513864" stroke="#1FD9FE" stroke-width="2"/><rect x="67.33333333333334" y="95.17865602989389" width="44" height="84" rx="4" fill="#1FD9FE" opacity=".28" stroke="#1FD9FE" stroke-width="2"/><line x1="67.33333333333334" y1="164.7916268741193" x2="111.33333333333334" y2="164.7916268741193" stroke="#1FD9FE" stroke-width="3"/><line x1="200.0" y1="167.3117047969743" x2="200.0" y2="52.32688469792848" stroke="#29B8FF" stroke-width="2"/><line x1="183.07692307692307" y1="167.3117047969743" x2="216.92307692307693" y2="167.3117047969743" stroke="#29B8FF" stroke-width="2"/><line x1="183.07692307692307" y1="52.32688469792848" x2="216.92307692307693" y2="52.32688469792848" stroke="#29B8FF" stroke-width="2"/><rect x="178.0" y="104.34395585350123" width="44" height="57" rx="4" fill="#29B8FF" opacity=".28" stroke="#29B8FF" stroke-width="2"/><line x1="178.0" y1="130.95012414033903" x2="222.0" y2="130.95012414033903" stroke="#29B8FF" stroke-width="3"/><line x1="310.6666666666667" y1="184.75924522705014" x2="310.6666666666667" y2="76.87610255903931" stroke="#E8EFF7" stroke-width="2"/><line x1="293.7435897435898" y1="184.75924522705014" x2="327.5897435897436" y2="184.75924522705014" stroke="#E8EFF7" stroke-width="2"/><line x1="293.7435897435898" y1="76.87610255903931" x2="327.5897435897436" y2="76.87610255903931" stroke="#E8EFF7" stroke-width="2"/><rect x="288.6666666666667" y="125.73051976973574" width="44" height="44" rx="4" fill="#E8EFF7" opacity=".28" stroke="#E8EFF7" stroke-width="2"/><line x1="288.6666666666667" y1="131.82391802628638" x2="332.6666666666667" y2="131.82391802628638" stroke="#E8EFF7" stroke-width="3"/></svg>