<svg xmlns="http://www.w3.org/2000/svg" viewBox="0 0 400 250"><rect width="400" height="250" fill="#03142C"/><path d="M70,150 C60,110 95,78 140,82 C165,60 215,58 240,80 C285,70 330,92 332,124 C355,140 348,176 318,186 C300,210 250,214 220,200 C180,216 130,210 108,188 C80,182 74,168 70,150 Z" fill="#0A2240" stroke="#1B3A5C" stroke-width="2"/><circle cx="171" cy="154" r="4" fill="#1FD9FE" opacity=".8"/><circle cx="171" cy="154" r="10" fill="none" stroke="#1FD9FE" stroke-width="1.5" opacity=".35"/><circle cx="316" cy="173" r="9" fill="#1FD9FE" opacity=".8"/><circle cx="316" cy="173" r="15" fill="none" stroke="#1FD9FE" stroke-width="1.5" opacity=".35"/><circle cx="158" cy="114" r="4" fill="#1FD9FE" opacity=".8"/><circle cx="158" cy="114" r="10" fill="none" stroke="#1FD9FE" stroke-width="1.5" opacity=".35"/><circle cx="143" cy="97" r="7" fill="#1FD9FE" opacity=".8"/><circle cx="143" cy="97" r="13" fill="none" stroke="#1FD9FE" stroke-width="1.5" opacity=".35"/><circle cx="180" cy="172" r="8" fill="#1FD9FE" opacity=".8"/><circle cx="180" cy="172" r="14" fill="none" stroke="#1FD9FE" stroke-width="1.5" opacity=".35"/><circle cx="177" cy="111" r="6" fill="#1FD9FE" opacity=".8"/><circle cx="177" cy="111" r="12" fill="none" stroke="#1FD9FE" stroke-width="1.5" opacity=".35"/><circle cx="107" cy="157" r="5" fill="#1FD9FE" opacity=".8"/><circle cx="107" cy="157" r="11" fill="none" stroke="#1FD9FE" stroke-width="1.5" opacity=".35"/><circle cx="133" cy="179" r="6" fill="#1FD9FE" opacity=".8"/><circle cx="133" cy="179" r="12" fill="none" stroke="#1FD9FE" stroke-width="1.5" opacity=".35"/><circle cx="308" cy="188" r="7" fill="#1FD9FE" opacity=".8"/><circle cx="308" cy="188" r="13" fill="none" stroke="#1FD9FE" stroke-width="1.5" opacity=".35"/></svg>