<svg xmlns="http://www.w3.org/2000/svg" viewBox="-40 0 1560 470" font-family="Inter, Arial, sans-serif"><rect width="1480" height="470" fill="#04101F"/><line x1="0" y1="0" x2="0" y2="470" stroke="#03142C" stroke-width="1"/><line x1="74" y1="0" x2="74" y2="470" stroke="#03142C" stroke-width="1"/><line x1="148" y1="0" x2="148" y2="470" stroke="#03142C" stroke-width="1"/><line x1="222" y1="0" x2="222" y2="470" stroke="#03142C" stroke-width="1"/><line x1="296" y1="0" x2="296" y2="470" stroke="#03142C" stroke-width="1"/><line x1="370" y1="0" x2="370" y2="470" stroke="#03142C" stroke-width="1"/><line x1="444" y1="0" x2="444" y2="470" stroke="#03142C" stroke-width="1"/><line x1="518" y1="0" x2="518" y2="470" stroke="#03142C" stroke-width="1"/><line x1="592" y1="0" x2="592" y2="470" stroke="#03142C" stroke-width="1"/><line x1="666" y1="0" x2="666" y2="470" stroke="#03142C" stroke-width="1"/><line x1="740" y1="0" x2="740" y2="470" stroke="#03142C" stroke-width="1"/><line x1="814" y1="0" x2="814" y2="470" stroke="#03142C" stroke-width="1"/><line x1="888" y1="0" x2="888" y2="470" stroke="#03142C" stroke-width="1"/><line x1="962" y1="0" x2="962" y2="470" stroke="#03142C" stroke-width="1"/><line x1="1036" y1="0" x2="1036" y2="470" stroke="#03142C" stroke-width="1"/><line x1="1110" y1="0" x2="1110" y2="470" stroke="#03142C" stroke-width="1"/><line x1="1184" y1="0" x2="1184" y2="470" stroke="#03142C" stroke-width="1"/><line x1="1258" y1="0" x2="1258" y2="470" stroke="#03142C" stroke-width="1"/><line x1="1332" y1="0" x2="1332" y2="470" stroke="#03142C" stroke-width="1"/><line x1="1406" y1="0" x2="1406" y2="470" stroke="#03142C" stroke-width="1"/><text x="740.0" y="44" font-family="Inter, Arial, sans-serif" font-size="21" font-weight="800" fill="#E8EFF7" text-anchor="middle" letter-spacing="1">VAST ORBIT · CI/CD PIPELINE</text><defs><linearGradient id="beam" x1="0" x2="1"><stop offset="0" stop-color="#1FD9FE"/><stop offset=".5" stop-color="#29B8FF"/><stop offset="1" stop-color="#1FD9FE"/></linearGradient></defs><rect x="610.0" y="56" width="260" height="3" rx="1.5" fill="url(#beam)"/><rect x="4.0" y="84" width="264" height="340" rx="14" fill="#03142C" stroke="#1B3A5C" stroke-width="1.5"/><rect x="4.0" y="84" width="264" height="4" rx="2" fill="url(#beam)"/><circle cx="30.0" cy="114" r="13" fill="#0A2240" stroke="#1B3A5C"/><text x="30.0" y="119" font-family="Inter, Arial, sans-serif" font-size="13" font-weight="700" fill="#1FD9FE" text-anchor="middle">1</text><path d="M122.0,146 c-8,0 -8,6 -8,10 c0,5 -6,6 -6,6 c0,0 6,1 6,6 c0,4 0,10 8,10" stroke="#1FD9FE" stroke-width="2.5" fill="none" stroke-linecap="round" stroke-linejoin="round"/><path d="M150.0,146 c8,0 8,6 8,10 c0,5 6,6 6,6 c0,0 -6,1 -6,6 c0,4 0,10 -8,10" stroke="#1FD9FE" stroke-width="2.5" fill="none" stroke-linecap="round" stroke-linejoin="round"/><circle cx="136.0" cy="162" r="2" fill="#1FD9FE"/><text x="136.0" y="220" font-family="Inter, Arial, sans-serif" font-size="17" font-weight="800" fill="#E8EFF7" text-anchor="middle">Code Formatting</text><text x="136.0" y="241" font-family="Inter, Arial, sans-serif" font-size="12.5" font-weight="500" fill="#1FD9FE" text-anchor="middle">Black · isort</text><circle cx="30.0" cy="268" r="2.5" fill="#1FD9FE"/><text x="42.0" y="272" font-family="Inter, Arial, sans-serif" font-size="12.5" fill="#9FB3C8">Deterministic formatting</text><circle cx="30.0" cy="294" r="2.5" fill="#1FD9FE"/><text x="42.0" y="298" font-family="Inter, Arial, sans-serif" font-size="12.5" fill="#9FB3C8">PEP 8 enforced</text><circle cx="30.0" cy="320" r="2.5" fill="#1FD9FE"/><text x="42.0" y="324" font-family="Inter, Arial, sans-serif" font-size="12.5" fill="#9FB3C8">Zero stylistic drift</text><rect x="91.31" y="378" width="89" height="26" rx="13" fill="none" stroke="#9FB3C8" stroke-width="1.5"/><text x="136.0" y="396" font-family="Inter, Arial, sans-serif" font-size="11" font-weight="700" letter-spacing="1" fill="#9FB3C8" text-anchor="middle">AUTOMATED</text><line x1="272.0" y1="254.0" x2="296.0" y2="254.0" stroke="#1FD9FE" stroke-width="2.5"/><polygon points="296.0,248.0 296.0,260.0 305.0,254.0" fill="#1FD9FE"/><rect x="306.0" y="84" width="264" height="340" rx="14" fill="#03142C" stroke="#1B3A5C" stroke-width="1.5"/><rect x="306.0" y="84" width="264" height="4" rx="2" fill="url(#beam)"/><circle cx="332.0" cy="114" r="13" fill="#0A2240" stroke="#1B3A5C"/><text x="332.0" y="119" font-family="Inter, Arial, sans-serif" font-size="13" font-weight="700" fill="#1FD9FE" text-anchor="middle">2</text><path d="M438.0,144 l14,5 v10 c0,10 -7,16 -14,19 c-7,-3 -14,-9 -14,-19 v-10 z" stroke="#1FD9FE" stroke-width="2.5" fill="none" stroke-linecap="round" stroke-linejoin="round"/><polyline points="432.0,162 437.0,167 445.0,156" stroke="#1FD9FE" stroke-width="2.5" fill="none" stroke-linecap="round" stroke-linejoin="round"/><text x="438.0" y="220" font-family="Inter, Arial, sans-serif" font-size="17" font-weight="800" fill="#E8EFF7" text-anchor="middle">Quality Analysis</text><text x="438.0" y="241" font-family="Inter, Arial, sans-serif" font-size="12.5" font-weight="500" fill="#1FD9FE" text-anchor="middle">Pylint</text><circle cx="332.0" cy="268" r="2.5" fill="#1FD9FE"/><text x="344.0" y="272" font-family="Inter, Arial, sans-serif" font-size="12.5" fill="#9FB3C8">Static scoring on every PR</text><circle cx="332.0" cy="294" r="2.5" fill="#1FD9FE"/><text x="344.0" y="298" font-family="Inter, Arial, sans-serif" font-size="12.5" fill="#9FB3C8">Threshold: score ≥ 9.5</text><circle cx="332.0" cy="320" r="2.5" fill="#1FD9FE"/><text x="344.0" y="324" font-family="Inter, Arial, sans-serif" font-size="12.5" fill="#9FB3C8">Fails gate → no merge</text><rect x="376.26" y="378" width="123" height="26" rx="13" fill="none" stroke="#F5A623" stroke-width="1.5"/><text x="438.0" y="396" font-family="Inter, Arial, sans-serif" font-size="11" font-weight="700" letter-spacing="1" fill="#F5A623" text-anchor="middle">MERGE-BLOCKING</text><line x1="574.0" y1="254.0" x2="598.0" y2="254.0" stroke="#1FD9FE" stroke-width="2.5"/><polygon points="598.0,248.0 598.0,260.0 607.0,254.0" fill="#1FD9FE"/><rect x="608.0" y="84" width="264" height="340" rx="14" fill="#03142C" stroke="#1B3A5C" stroke-width="1.5"/><rect x="608.0" y="84" width="264" height="4" rx="2" fill="url(#beam)"/><circle cx="634.0" cy="114" r="13" fill="#0A2240" stroke="#1B3A5C"/><text x="634.0" y="119" font-family="Inter, Arial, sans-serif" font-size="13" font-weight="700" fill="#1FD9FE" text-anchor="middle">3</text><path d="M734.0,144 v10 l-11,18 c-2,4 0,8 5,8 h24 c5,0 7,-4 5,-8 l-11,-18 v-10" stroke="#1FD9FE" stroke-width="2.5" fill="none" stroke-linecap="round" stroke-linejoin="round"/><line x1="730.0" y1="144" x2="750.0" y2="144" stroke="#1FD9FE" stroke-width="2.5" fill="none" stroke-linecap="round" stroke-linejoin="round"/><line x1="731.0" y1="170" x2="749.0" y2="170" stroke="#1FD9FE" stroke-width="2.5" fill="none" stroke-linecap="round" stroke-linejoin="round"/><text x="740.0" y="220" font-family="Inter, Arial, sans-serif" font-size="17" font-weight="800" fill="#E8EFF7" text-anchor="middle">Unit Testing</text><text x="740.0" y="241" font-family="Inter, Arial, sans-serif" font-size="12.5" font-weight="500" fill="#1FD9FE" text-anchor="middle">pytest · multi-version</text><circle cx="634.0" cy="268" r="2.5" fill="#1FD9FE"/><text x="646.0" y="272" font-family="Inter, Arial, sans-serif" font-size="12.5" fill="#9FB3C8">Python version matrix</text><circle cx="634.0" cy="294" r="2.5" fill="#1FD9FE"/><text x="646.0" y="298" font-family="Inter, Arial, sans-serif" font-size="12.5" fill="#9FB3C8">Parallel execution</text><circle cx="634.0" cy="320" r="2.5" fill="#1FD9FE"/><text x="646.0" y="324" font-family="Inter, Arial, sans-serif" font-size="12.5" fill="#9FB3C8">Deterministic results</text><rect x="678.26" y="378" width="123" height="26" rx="13" fill="none" stroke="#F5A623" stroke-width="1.5"/><text x="740.0" y="396" font-family="Inter, Arial, sans-serif" font-size="11" font-weight="700" letter-spacing="1" fill="#F5A623" text-anchor="middle">MERGE-BLOCKING</text><line x1="876.0" y1="254.0" x2="900.0" y2="254.0" stroke="#1FD9FE" stroke-width="2.5"/><polygon points="900.0,248.0 900.0,260.0 909.0,254.0" fill="#1FD9FE"/><rect x="910.0" y="84" width="264" height="340" rx="14" fill="#03142C" stroke="#1B3A5C" stroke-width="1.5"/><rect x="910.0" y="84" width="264" height="4" rx="2" fill="url(#beam)"/><circle cx="936.0" cy="114" r="13" fill="#0A2240" stroke="#1B3A5C"/><text x="936.0" y="119" font-family="Inter, Arial, sans-serif" font-size="13" font-weight="700" fill="#1FD9FE" text-anchor="middle">4</text><circle cx="1042.0" cy="162" r="16" stroke="#11305A" stroke-width="5" fill="none"/><circle cx="1042.0" cy="162" r="16" stroke="#5BE49B" stroke-width="5" fill="none" stroke-dasharray="96 101" stroke-linecap="round" transform="rotate(-90 1042.0 162)"/><text x="1042.0" y="167" font-family="Inter, Arial, sans-serif" font-size="11" font-weight="800" fill="#5BE49B" text-anchor="middle">95%</text><text x="1042.0" y="220" font-family="Inter, Arial, sans-serif" font-size="17" font-weight="800" fill="#E8EFF7" text-anchor="middle">Coverage</text><text x="1042.0" y="241" font-family="Inter, Arial, sans-serif" font-size="12.5" font-weight="500" fill="#1FD9FE" text-anchor="middle">95%+ enforced</text><circle cx="936.0" cy="268" r="2.5" fill="#1FD9FE"/><text x="948.0" y="272" font-family="Inter, Arial, sans-serif" font-size="12.5" fill="#9FB3C8">Line + branch coverage</text><circle cx="936.0" cy="294" r="2.5" fill="#1FD9FE"/><text x="948.0" y="298" font-family="Inter, Arial, sans-serif" font-size="12.5" fill="#9FB3C8">Gated upload via CI</text><rect x="990.49" y="378" width="103" height="26" rx="13" fill="none" stroke="#1FD9FE" stroke-width="1.5"/><text x="1042.0" y="396" font-family="Inter, Arial, sans-serif" font-size="11" font-weight="700" letter-spacing="1" fill="#1FD9FE" text-anchor="middle">CI ENFORCED</text><line x1="1178.0" y1="254.0" x2="1202.0" y2="254.0" stroke="#1FD9FE" stroke-width="2.5"/><polygon points="1202.0,248.0 1202.0,260.0 1211.0,254.0" fill="#1FD9FE"/><rect x="1212.0" y="84" width="264" height="340" rx="14" fill="#03142C" stroke="#1B3A5C" stroke-width="1.5"/><rect x="1212.0" y="84" width="264" height="4" rx="2" fill="url(#beam)"/><circle cx="1238.0" cy="114" r="13" fill="#0A2240" stroke="#1B3A5C"/><text x="1238.0" y="119" font-family="Inter, Arial, sans-serif" font-size="13" font-weight="700" fill="#1FD9FE" text-anchor="middle">5</text><path d="M1333.0,144 h14 l8,8 v26 h-22 z" stroke="#1FD9FE" stroke-width="2.5" fill="none" stroke-linecap="round" stroke-linejoin="round"/><polyline points="1347.0,144 1347.0,152 1355.0,152" stroke="#1FD9FE" stroke-width="2.5" fill="none" stroke-linecap="round" stroke-linejoin="round"/><line x1="1339.0" y1="162" x2="1349.0" y2="162" stroke="#1FD9FE" stroke-width="2.5" fill="none" stroke-linecap="round" stroke-linejoin="round"/><line x1="1339.0" y1="169" x2="1349.0" y2="169" stroke="#1FD9FE" stroke-width="2.5" fill="none" stroke-linecap="round" stroke-linejoin="round"/><text x="1344.0" y="220" font-family="Inter, Arial, sans-serif" font-size="17" font-weight="800" fill="#E8EFF7" text-anchor="middle">Documentation</text><text x="1344.0" y="241" font-family="Inter, Arial, sans-serif" font-size="12.5" font-weight="500" fill="#1FD9FE" text-anchor="middle">Sphinx → website</text><circle cx="1238.0" cy="268" r="2.5" fill="#1FD9FE"/><text x="1250.0" y="272" font-family="Inter, Arial, sans-serif" font-size="12.5" fill="#9FB3C8">Docs build on every merge</text><circle cx="1238.0" cy="294" r="2.5" fill="#1FD9FE"/><text x="1250.0" y="298" font-family="Inter, Arial, sans-serif" font-size="12.5" fill="#9FB3C8">Published automatically</text><rect x="1299.31" y="378" width="89" height="26" rx="13" fill="none" stroke="#9FB3C8" stroke-width="1.5"/><text x="1344.0" y="396" font-family="Inter, Arial, sans-serif" font-size="11" font-weight="700" letter-spacing="1" fill="#9FB3C8" text-anchor="middle">AUTOMATED</text></svg>