<?xml version="1.0" encoding="UTF-8"?>
<svg version="1.1" xmlns="http://www.w3.org/2000/svg" width="730" height="730">
<!-- Main dark paths that will become white in dark mode -->
<path class="logo-text" d="M0 0 C1.36867474 1.29702931 2.7071492 2.62737756 4 4 C-26.39900558 30.7423927 -61.74151867 52.33015858 -97 72 C-97.84111328 72.47276367 -98.68222656 72.94552734 -99.54882812 73.43261719 C-110.23217053 79.4180596 -121.03298856 85.04715607 -132.0625 90.36328125 C-134.05417822 91.33108388 -136.04563138 92.29934983 -138.03686523 93.26806641 C-141.02985777 94.72408083 -144.02568766 96.17019578 -147.03787231 97.58612061 C-162.13002238 104.30721014 -162.13002238 104.30721014 -172 117 C-173.01790602 118.74802449 -174.04150866 120.49274217 -175.0703125 122.234375 C-176.09303087 124.07042326 -177.11109808 125.90906844 -178.125 127.75 C-182.41129094 135.42991413 -186.75740517 143.0637962 -191.25 150.625 C-191.77835449 151.51469482 -192.30670898 152.40438965 -192.85107422 153.32104492 C-193.96839505 155.20249144 -195.08574624 157.08391992 -196.203125 158.96533203 C-199.57103291 164.65325259 -202.90936812 170.35853467 -206.25 176.0625 C-206.97362052 177.297696 -207.69725339 178.53288477 -208.42089844 179.76806641 C-209.88426793 182.26602349 -211.34745515 184.76408724 -212.81054688 187.26220703 C-216.01929537 192.74057987 -219.2304835 198.21752247 -222.44152832 203.69454956 C-224.21112266 206.7129722 -225.98055288 209.73149105 -227.75 212.75 C-228.45833255 213.95833379 -229.16666588 215.16666713 -229.875 216.375 C-230.225625 216.973125 -230.57625 217.57125 -230.9375 218.1875 C-234.125 223.625 -234.125 223.625 -235.18736267 225.43722534 C-235.89620075 226.64644666 -236.6049918 227.85569556 -237.31373596 229.06497192 C-239.07646336 232.07244613 -240.83998636 235.07944798 -242.60522461 238.08544922 C-245.89029927 243.68146796 -249.16758229 249.28160972 -252.41751099 254.89813232 C-253.93170669 257.51385744 -255.45031608 260.12700761 -256.96923828 262.73999023 C-257.68318341 263.97097959 -258.39503061 265.20318876 -259.10449219 266.43676758 C-273.65604459 291.73359602 -273.65604459 291.73359602 -286 296 C-288.78539335 296.43724595 -291.49592912 296.52452238 -294.3125 296.5 C-295.42963379 296.49359497 -295.42963379 296.49359497 -296.56933594 296.48706055 C-304.26600346 296.25040725 -309.7837199 293.93770465 -315.48046875 288.734375 C-318.17021276 285.81527297 -320.40231053 282.75202674 -322.5625 279.4375 C-322.99030762 278.78821533 -323.41811523 278.13893066 -323.85888672 277.4699707 C-327.7741584 271.46594317 -331.46058437 265.3294505 -335.12207031 259.16845703 C-339.28111118 252.17180532 -343.53331966 245.23623337 -347.8125 238.3125 C-353.21806766 229.56278259 -358.54646785 220.77184632 -363.8125 211.9375 C-369.65528501 202.14228787 -375.7068964 192.51161397 -382 183 C-390.71848088 183.51555834 -399.17394291 185.06572717 -407.72839355 186.72476196 C-422.68487289 189.61256688 -437.67592637 192.12281639 -452.75 194.3125 C-453.58742737 194.43515228 -454.42485474 194.55780457 -455.28765869 194.68417358 C-479.39348068 198.19998935 -503.09243915 200.17524847 -527.46948242 200.13037109 C-530.92696528 200.12501632 -534.38431797 200.1303419 -537.84179688 200.13671875 C-553.95112937 200.1436614 -569.73211467 200.09016918 -585.5625 196.75 C-586.63459717 196.52820068 -587.70669434 196.30640137 -588.8112793 196.07788086 C-597.12079947 194.30286753 -605.10183928 192.18040292 -613 189 C-614.03898438 188.58363281 -615.07796875 188.16726563 -616.1484375 187.73828125 C-626.74494006 182.9848373 -635.72622452 175.43967827 -641 165 C-644.27438685 156.25669043 -642.65582569 143.33639039 -639 135 C-629.5341949 114.3087209 -610.01140912 96.50050846 -591.81201172 83.31591797 C-589.81831153 81.86805432 -587.84914619 80.38976692 -585.87890625 78.91015625 C-562.04954371 61.18223678 -535.88492542 46.73796941 -509.47021484 33.265625 C-507.84913481 32.4350578 -506.234545 31.59167331 -504.62744141 30.734375 C-502.781324 29.76417696 -500.89395181 28.87314389 -499 28 C-498.34 28.33 -497.68 28.66 -497 29 C-503.19419133 32.98563669 -509.55738219 36.48868428 -516.0625 39.9375 C-585.36312575 76.94941491 -585.36312575 76.94941491 -630.4375 138.0546875 C-632.00783609 146.27714176 -632.69812159 155.00548673 -628.5625 162.5625 C-618.10298153 177.12762385 -598.8558003 182.13588434 -582.03662109 184.98999023 C-502.74811775 197.35347503 -417.71315566 179.06200788 -180 100 C-178.94345215 99.52884766 -177.8869043 99.05769531 -176.79833984 98.57226562 C-147.90865223 85.67927118 -119.10813772 71.7535465 -91.84863281 55.67236328 C-89.19206502 54.11275672 -86.52391716 52.57471459 -83.85092163 51.04347229 C-62.48316781 38.79705853 -41.86278937 25.58556953 -22 11 C-21.0112085 10.27393555 -21.0112085 10.27393555 -20.00244141 9.53320312 C-19.30683105 9.02208984 -18.6112207 8.51097656 -17.89453125 7.984375 C-16.85824585 7.22314331 -16.85824585 7.22314331 -15.80102539 6.4465332 C-14.46400459 5.46282584 -13.12847878 4.47708229 -11.79467773 3.48901367 C-4.98123954 -1.54181224 -4.98123954 -1.54181224 0 0 Z M-276.84375 150.38671875 C-277.60868774 150.64499954 -278.37362549 150.90328033 -279.16174316 151.16938782 C-281.61129477 151.99894658 -284.05559897 152.84289968 -286.5 153.6875 C-288.11425322 154.23729832 -289.7288338 154.78613649 -291.34375 155.33398438 C-294.46399535 156.39386851 -297.58238538 157.45893388 -300.69921875 158.52880859 C-306.12115115 160.38774394 -311.55816004 162.20018275 -317 164 C-311.10300723 176.71234002 -303.65541353 188.2804836 -296 200 C-293.0151205 196.43135568 -290.57769311 192.78665212 -288.2421875 188.765625 C-287.72453575 187.87846046 -287.72453575 187.87846046 -287.19642639 186.97337341 C-286.08556125 185.06772142 -284.980263 183.15890557 -283.875 181.25 C-283.11312545 179.94092116 -282.35083536 178.63208407 -281.58813477 177.32348633 C-280.08294997 174.74023365 -278.57956081 172.15595051 -277.07763672 169.57080078 C-274.38145818 164.93290514 -271.66181797 160.30890974 -268.9375 155.6875 C-268.15490348 154.35809908 -267.37234569 153.02867535 -266.58984375 151.69921875 C-266.06519531 150.80847656 -265.54054688 149.91773438 -265 149 C-269.17864838 147.20326228 -272.80988189 148.97547219 -276.84375 150.38671875 Z " fill="#171818" transform="translate(659,295)"/>

<path class="logo-text" d="M0 0 C1.29950592 -0.01142029 2.59901184 -0.02284058 3.93789673 -0.03460693 C5.37104759 -0.03709735 6.80419888 -0.0393476 8.23735046 -0.04138184 C9.7521869 -0.05064426 11.26701868 -0.0606944 12.78184509 -0.07147217 C16.89145752 -0.09766421 21.00100468 -0.11059879 25.11068749 -0.11949348 C27.68021723 -0.12536341 30.24972929 -0.13357456 32.81925011 -0.14250183 C40.86459591 -0.16983568 48.90990112 -0.18917738 56.95529014 -0.19690561 C66.23192945 -0.2058665 75.50797929 -0.24096632 84.78443938 -0.2989068 C91.96253735 -0.34217977 99.14046969 -0.3623162 106.31869668 -0.36498785 C110.60262153 -0.36708098 114.88599168 -0.37883114 119.16977882 -0.41462708 C123.2009942 -0.44765877 127.23123998 -0.45186767 131.26254272 -0.43434906 C132.73792817 -0.432812 134.2133665 -0.44144584 135.68861961 -0.46126556 C143.45257069 -0.55941571 149.21640322 -0.549457 155.20287323 4.76377773 C159.15381193 9.15405583 158.87566559 14.01088495 158.86894226 19.65197754 C158.87322739 20.45192642 158.87751251 21.25187531 158.88192749 22.07606506 C158.8876538 23.76289934 158.88818361 25.44975829 158.88383484 27.13659668 C158.88067549 29.70660841 158.90415205 32.27546734 158.92948914 34.84533691 C158.93176249 36.48921568 158.93246545 38.13309752 158.93144226 39.77697754 C158.94065201 40.53965439 158.94986176 41.30233124 158.95935059 42.08811951 C158.91820936 46.87131112 158.19750512 50.13444648 155.56816101 54.28088379 C149.37968401 59.25857181 143.88942095 59.42922 136.19779968 59.48620605 C135.36801605 59.49610565 134.53823242 59.50600525 133.68330383 59.51620483 C130.95094112 59.54769658 128.21856105 59.57252836 125.48612976 59.59729004 C123.58755043 59.61787022 121.68897558 59.63886697 119.79040527 59.66026306 C114.80099619 59.71537386 109.81154651 59.7648315 104.82206726 59.81311035 C99.7276296 59.86340576 94.63325067 59.91904981 89.53886414 59.97424316 C79.54867997 60.08169025 69.55844474 60.18316495 59.56816101 60.28088379 C66.58760366 72.1952253 73.61668017 84.10041671 80.81816101 95.90588379 C81.53380564 97.08157385 82.24929548 98.25735813 82.96464539 99.43322754 C84.43541635 101.85057537 85.90681885 104.2675369 87.37870789 106.6842041 C89.53325256 110.22251336 91.68415369 113.76302593 93.83378601 117.30432129 C94.18333344 117.88015961 94.53288086 118.45599792 94.89302063 119.04928589 C96.30600048 121.37720105 97.71882066 123.70521307 99.13157654 126.03326416 C102.99855429 132.40538929 106.86846043 138.77568026 110.74784851 145.14025879 C118.07120336 157.15975121 125.3518695 169.20440329 132.55870056 181.29418945 C133.38594283 182.68119833 134.21431775 184.06753241 135.04393005 185.453125 C148.56816101 208.05367294 148.56816101 208.05367294 148.56816101 215.28088379 C146.60515681 220.25516313 144.19939591 222.79506435 139.94316101 225.96838379 C139.38556091 226.38483154 138.82796082 226.8012793 138.25346375 227.23034668 C111.44577049 246.9331789 111.44577049 246.9331789 100.56816101 245.28088379 C85.30757199 238.74063135 74.52133466 210.932209 66.3589325 197.27722168 C60.25526402 187.06768168 54.06767589 176.90906446 47.88845825 166.74516296 C45.34350948 162.55853739 42.80249405 158.36954428 40.26347351 154.17932129 C32.7494885 141.78155227 25.19777654 129.40845221 17.58744812 117.06945801 C12.35524632 108.57893676 7.17424736 100.05830454 2.00648499 91.52850342 C-3.97842552 81.65170175 -10.01284549 71.80644 -16.08027649 61.98010254 C-17.29475408 60.01198687 -18.50686749 58.04240976 -19.71626282 56.07116699 C-20.85876123 54.21296088 -22.00964596 52.35988466 -23.16889954 50.51208496 C-23.70684143 49.64301514 -24.24478333 48.77394531 -24.79902649 47.87854004 C-25.27324036 47.12065186 -25.74745422 46.36276367 -26.23603821 45.58190918 C-30.07944188 38.18622121 -30.12146256 29.29140129 -28.43183899 21.28088379 C-24.97394887 11.66106626 -18.31942367 5.55363392 -9.18905354 1.21518707 C-5.98201619 0.12845789 -3.38540028 0.01785499 0 0 Z " fill="#161717" transform="translate(145.4318389892578,168.7191162109375)"/>

<!-- Blue accent - stays blue in both modes -->
<path class="logo-accent" d="M0 0 C1.37068486 -0.010195 1.37068486 -0.010195 2.76906031 -0.02059597 C5.81423122 -0.03950307 8.85899768 -0.03713532 11.90422058 -0.03465271 C14.09442662 -0.04363425 16.28462791 -0.05384341 18.474823 -0.06518555 C24.41294049 -0.09164864 30.35092822 -0.09871745 36.28909898 -0.10063291 C40.0019269 -0.10276755 43.71472198 -0.10917643 47.42754173 -0.11712456 C59.72017748 -0.14343484 72.01273414 -0.15738605 84.30539838 -0.15513314 C84.96707221 -0.15501327 85.62874603 -0.1548934 86.31047058 -0.1547699 C87.304203 -0.15458593 87.304203 -0.15458593 88.31801083 -0.15439826 C99.05110721 -0.15317926 109.78388767 -0.18188345 120.51689271 -0.224185 C131.55631562 -0.26734849 142.59557706 -0.28744308 153.63508528 -0.28540367 C159.82542844 -0.28463988 166.01541384 -0.29312932 172.20568275 -0.32493782 C178.02945195 -0.35404723 183.85252297 -0.35417415 189.67631721 -0.33238792 C191.80835239 -0.3292586 193.94043154 -0.33629049 196.07239151 -0.3544693 C208.98261793 -0.45738506 218.09775501 0.02383818 228.326828 8.70973206 C233.3179062 14.67494613 236.82716706 19.34961536 236.608078 27.40113831 C237.27998672 27.39447647 237.95189545 27.38781464 238.64416504 27.38095093 C245.73519529 27.31378396 252.826133 27.269006 259.91740417 27.23634338 C262.55235654 27.22311652 265.18679698 27.20103872 267.82170105 27.17481995 C319.02417082 26.67865313 319.02417082 26.67865313 336.1627655 42.86988831 C341.16010402 48.42905778 343.20600985 54.29756006 342.9596405 61.65504456 C341.87118237 70.15711197 338.43752591 77.4252691 333.608078 84.40113831 C331.628078 82.75113831 329.648078 81.10113831 327.608078 79.40113831 C328.07087736 76.34666252 328.78230225 74.03091179 330.108078 71.21363831 C332.86915181 64.86728956 333.40998945 58.74055693 331.170578 52.15113831 C327.33147999 43.8352616 319.91989408 40.68528202 311.72917175 37.49488831 C293.95396552 31.26577974 275.6478716 31.11061802 257.045578 31.27613831 C255.05144194 31.28620068 253.05730088 31.2953207 251.06315613 31.30348206 C246.24467038 31.32520871 241.4264316 31.3595539 236.608078 31.40113831 C236.62996689 32.42073135 236.62996689 32.42073135 236.65229797 33.46092224 C236.66364777 34.35626678 236.67499756 35.25161133 236.68669128 36.17408752 C236.70858017 37.50305557 236.70858017 37.50305557 236.73091125 38.85887146 C236.54956026 42.61227395 235.24406344 45.23257977 233.483078 48.52613831 C232.95508606 49.52447693 232.95508606 49.52447693 232.41642761 50.54298401 C227.41446427 59.85542888 221.97835125 68.9395119 216.59684753 78.03541565 C213.4469513 83.36618774 210.31981011 88.71025925 207.19062805 94.0532074 C206.10757297 95.9020004 205.02384167 97.75039522 203.93986511 99.59864807 C199.36274474 107.40303672 194.79302913 115.21170082 190.233078 123.02613831 C189.38350525 124.48080505 189.38350525 124.48080505 188.51676941 125.96485901 C185.80554998 130.6120425 183.10770688 135.26615313 180.436203 139.93629456 C179.93653015 140.80753967 179.4368573 141.67878479 178.92204285 142.57643127 C177.99676798 144.19181613 177.07492852 145.80917623 176.15739441 147.42897034 C173.24425758 152.51124553 170.57435285 157.09028841 165.608078 160.40113831 C150.31604474 163.49504885 135.35902645 151.48887266 123.25505066 143.52809143 C119.70753659 141.1006789 117.00131322 138.99099113 114.608078 135.40113831 C114.09583628 129.48875796 114.95481364 125.51304363 117.795578 120.27613831 C118.15015076 119.59639954 118.50472351 118.91666077 118.87004089 118.21632385 C122.8894855 110.64020799 127.30001945 103.28160546 131.71232605 95.9299469 C136.03727053 88.70104056 140.29433084 81.43295844 144.54948425 74.16285706 C145.33626006 72.8195261 146.12308434 71.47622354 146.90995789 70.13294983 C148.80988798 66.88933834 150.70916946 63.64534794 152.608078 60.40113831 C151.39330528 60.40446922 151.39330528 60.40446922 150.1539917 60.40786743 C110.56980681 60.51087198 70.98794581 60.4818128 31.4055748 60.05370712 C28.73807792 60.02618988 26.07057147 60.00233576 23.4030304 59.97953796 C19.19451611 59.94309541 14.98621856 59.89692292 10.77789116 59.84313774 C9.23706922 59.82481647 7.69620672 59.80958844 6.15532112 59.79777718 C-14.20405109 59.63463339 -14.20405109 59.63463339 -19.829422 54.65113831 C-24.0124252 50.31320906 -24.64547624 44.80876206 -24.657547 39.00660706 C-24.66012512 37.80326721 -24.66270325 36.59992737 -24.6653595 35.36012268 C-24.65375793 33.49323792 -24.65375793 33.49323792 -24.641922 31.58863831 C-24.64965637 30.35565002 -24.65739075 29.12266174 -24.6653595 27.85231018 C-24.63028679 11.4295142 -24.63028679 11.4295142 -20.266922 5.52613831 C-13.85661745 0.78808712 -7.72001293 -0.04265832 0 0 Z " fill="#29b8ff" transform="translate(371.3919219970703,168.59886169433594)"/>
</svg>
