<?xml version="1.0" encoding="UTF-8"?>
<svg id="Layer_5" data-name="Layer 5" xmlns="http://www.w3.org/2000/svg" viewBox="0 0 1920 1080">
  <defs>
    <style>
      .cls-1 {
        fill: #081636;
      }
    </style>
  </defs>
  <path class="cls-1" d="M464.82,327.68l6.04,2.83c3.56,1.64,5.27,6.06,3.56,9.59l-1.49,2.92-36.04,75.67c-1.76,3.67-5.5,6.01-9.59,6.01h-.32c-4.1,0-7.84-2.34-9.59-6.01l-36.04-75.67-1.49-2.92c-1.67-3.54.09-7.96,3.6-9.63l6.04-2.83c3.56-1.68,7.79-.18,9.46,3.36l1.71,3.14,26.49,55.69,26.49-55.64,1.71-3.14c1.67-3.54,5.9-5.04,9.46-3.36Z"/>
  <path class="cls-1" d="M533.69,423.98l-6.04-2.83c-3.56-1.68-5.27-6.1-3.56-9.59l1.49-2.92,36.04-75.67c1.76-3.67,5.5-6.01,9.59-6.01h.32c4.1,0,7.84,2.34,9.59,6.01l36.04,75.67,1.49,2.92c1.67,3.54-.05,7.91-3.6,9.59l-6.04,2.83c-3.56,1.68-7.79.18-9.46-3.36l-1.71-3.14-26.49-55.64-26.49,55.64-1.71,3.14c-1.67,3.54-5.9,5.04-9.46,3.36Z"/>
  <path class="cls-1" d="M742.56,347.83c3.96.18,7.3-2.78,7.43-6.67l.22-6.54c.14-3.84-3.01-7.42-6.98-7.6l-3.65-.04h-41.62c-.23,0-.45,0-.72.04-10.99.71-27.39,8.49-27.39,26.96s16.17,27.18,24.86,29.04l21.71,5.13c.31.09.63.13.95.18,1.17.18,6.89,1.33,6.89,7.65,0,3.8-1.94,6.06-5.81,6.67h-40.86l-2.79.04c-3.96-.18-7.3,2.78-7.43,6.67l-.23,6.54c-.14,3.85,3.02,7.43,6.98,7.6l3.47.04h41.62c.31,0,.68,0,.99-.04,10.18-.93,25.36-9.02,25.36-27.54s-15.77-26.78-24.55-28.24l-21.44-5.04c-.09-.04-.18-.04-.27-.04l-.07-.02c-.82-.2-8.09-2.01-8.09-8.6,0-4.55,4.46-5.79,7.3-6.1h41.08l3.02-.09Z"/>
  <path class="cls-1" d="M879.28,326.97c3.96-.04,7.21,3.05,7.21,6.89l.09,6.63c0,3.89-3.29,7.34-7.26,7.38h-26.08v68.51c-.09,3.89-3.61,7.12-7.52,7.12h-6.76c-3.92-.04-7.07-3.18-7.02-7.07l-.05-68.52-26.04-.03c-3.96-.09-7.25-3.54-7.25-7.38v-6.63c.05-3.85,3.24-6.94,7.21-6.89h73.47Z"/>
  <path class="cls-1" d="M926.6,632.47l.09-.15c4.73-8.45,7.67-18.06,8.34-28.29l.14-4.42c0-27.85-17.75-52.82-43.86-62.43l-.25-.08-.23-.08-2.69-.8c-6.28-1.73-12.66-2.61-19.3-2.61h-152.87v49.63h152.87c9.17,0,16.45,7.1,16.69,16.52-.23,9.19-7.6,16.54-16.69,16.54h-86.88c-7.14,0-14.9,1.11-22.15,3.9-26.21,9.33-43.84,34.37-43.84,62.42v65.99h49.63v-66.32c0-8.91,7.46-16.36,16.37-16.36h71.84l32.94,82.68h53.56l-36.9-92.42c9.71-5.91,17.69-14.21,23.21-23.72Z"/>
  <polygon class="cls-1" points="1375.3 533.62 1375.3 583.24 1466.38 583.24 1466.38 748.94 1516.02 748.94 1516.02 583.24 1607.1 583.24 1607.1 533.62 1375.3 533.62"/>
  <rect class="cls-1" x="1273.07" y="533.62" width="49.63" height="215.33"/>
  <path class="cls-1" d="M1219.95,602.56l.06-2.94c0-36.35-29.73-66-66.32-66h-119.83c-25.32,0-45.65,20.32-45.65,45.64v123.71c0,25.2,20.2,45.98,45.65,45.98h119.83c35.52,0,64.46-28.21,66.24-62.95l.08-3.37c0-15.38-5.16-29.74-14.69-41.51,8.91-11.02,14.01-24.29,14.63-38.56ZM1153.69,698.98h-114.34c-.63,0-1.16-.37-1.39-.91l-.11-.59v-31.54h115.85l1.67.08c8.25.86,15.01,8.02,15.01,16.6s-7.61,16.36-16.68,16.36ZM1153.69,616.3h-115.85v-31.54c0-.84.67-1.51,1.5-1.51h114.34c9.07,0,16.68,7.62,16.68,16.37s-7.69,16.68-16.68,16.69Z"/>
  <path class="cls-1" d="M492.21,557.21c-2.2-5.29-4.84-10.11-8.38-14.55-.76-.96-4.48-5.68-12.04-7.37-12.07-2.7-44.79-.11-55.59,21.55-1.03,2.01-2.15,3.64-2.43,5.66l-.56,4.13c-.27,5.41.85,10.47,2.2,15.69,1.77,6.82,4.93,13.06,10.23,17.87,7.18,6.52,16.57,10,26.33,10.06,20.77.12,40.56-14.88,42.9-35.84.66-5.92-.4-11.74-2.67-17.21ZM483.49,578.92c-1.39,3.15-3.6,5.71-6.56,7.84l2.57-7.42c1.22-3.51,1.02-7.06.26-10.61-1.29-6.07-5-10.26-2.85-14.36.39-.74,1.44-1.28,2.27-1.21.59.05,1.55.76,1.87,1.49,3.71,8.41,6.27,15.61,2.43,24.28Z"/>
  <path class="cls-1" d="M577.51,533.62h-54.97c6.25,5.74,10.66,14.03,11.88,24.35,1.71,14.38-10.92,19.9-18.6,24.56-.39.24-.79.48-1.18.72h62.87l1.64.04c16.84.87,30.54,15.03,30.54,32.47v50.71c0,18-14.61,32.5-32.18,32.5h-51.91c-1.6-1.25-3.54-2.81-5.9-4.75-8.48-6.98-9.17-10.9-9.07-12.26.04-.58.24-1.02.45-1.34.31.12.64.24.99.37,11.21,4.22,22.18,8.12,27.34,8.43l4.52,4.14c3.22,2.95,7.42,4.5,11.87,4.35,4.01-.13,7.7-1.84,10.4-4.8,2.66-2.93,4.06-6.73,3.93-10.72-.25-7.45-3.86-14.15-7.73-20.28-.55-.87-3.48-5.41-7.01-9.04-4.49-4.6-8.38-6.08-11.57-4.38-1.41.75-3.51,1.01-7.37-3.44-.38-.75-1.22-1.58-2.87-3.21-3.26-3.23-10.57-10.47-11.42-15.24,1.27-.27,4.18-.5,10.84-.28.77.03,1.34.04,1.61.04.4,0,.79-.03,1.2-.04,1.08-.05,2.1-.1,2.92.13.23.08.75.62,1.07.95.32.33.63.65.94.91,1.17,1.02,2.35,1.75,3.48,2.45.54.34,1.1.68,1.65,1.06l4.21,2.89c2.47,1.7,4.9,2.21,7.45,1.57,2.83-.71,4.97-2.57,5.87-5.11.14-.41.25-.82.31-1.23l.62.28c2.85,1.29,6.29,1.08,9.21-.55,2.75-1.54,4.43-4.46,4.48-7.81.03-1.86-.58-3.46-1.2-4.88,2.07-4.25.66-9.62-3.62-13-.28-.22-.56-.64-.66-.98-1.73-5.84-8.9-9.52-14.85-9.71-3.57-.11-6.97.13-10.4.73l-3.06.89c-.25.08-.39.11-.47.12-1.1-.54-2.14-.65-2.98-.75-.29-.03-.57-.06-.86-.12l-4.89-.96-15.52-.63-8.81-.07,1.23-3.06c.6-1.28,2.08-5.63,2.33-8.35.46-1.32,1.21-2.34,2.36-3.22l4.57-3.51c4.76-3.66,7.48-9.4,7.27-15.34-.32-9.09-5.02-17.78-12.58-23.24-4.08-2.95-9.16-3.61-14.29-1.86-1.53.52-2.78-.16-3.39-.62l-5.59-4.17-.37-3.67c1.93-1.53,3.81-4.33,2.47-9.22-.57-2.08-1.79-3.1-2.72-3.59-1.64-.86-3.31-.62-4.11-.42-.15,0-.3.01-.45.02-1.88.06-4.72.14-6.3,4.51-1.11,3.07-.5,5.63,1.82,7.63-13.43-3.55-41.74-4.35-54.1,3.41-4.42,2.77-9.08,5.9-13.28,9.95-8.54,8.26-14.44,19.01-17.1,31.14l-2.57-3.91v-1.43c.9-4.38-1.76-7.42-4.86-8.52-1.95-.69-4.84-.87-7.53,2.19-1.67,1.89-4.45,5.04-1.72,9.45,1.32,2.14,2.81,4.04,6.09,4.04h.02l2.93,5.21c-8.81,7.74-7.04,20.88-1.31,30.34,4.6,7.6,13.11,11.32,21.66,9.49,2.25-.48,3.84-.08,5.18,1.32,1.02,1.07,6.11,6.22,11.14,8.39-1.19,2.46-2.98,6.39-5.32,12.13-4.29,10.51-4.99,19.32-5.02,19.69l-.15,5.09c0,.29-.04.58-.08.87-.09.84-.21,1.89.07,3.07-.03.07-.09.2-.22.43l-1.42,2.53-.12.26c-1.35,3.2-2.33,6.47-3.01,9.98-1.14,5.84.86,13.65,6.18,16.63.31.17.66.54.81.86,1.06,2.21,2.63,3.93,4.45,5.08-1.28.28-2.53.5-3.79.5-1.46,0-2.92-.3-4.44-1.14-8.09-4.53-10.74-15.05-9.17-23.09.76-3.92,1.87-7.57,3.38-11.17l.19-.45.93-1.66c-.02-1.03.07-1.88.14-2.51.01-.13.03-.27.04-.4l.16-5.33c.03-.41.81-10.15,5.46-21.53,1.17-2.88,2.22-5.32,3.12-7.37-3.26-2.29-5.95-4.87-7.28-6.23-11.1,2.35-22.11-2.46-28.06-12.29-2.7-4.46-4.47-9.3-5.24-14.07-1.63,6.46-2.51,13.22-2.51,20.19v50.71c0,45.35,36.8,82.14,82.14,82.14h118.79c43.59,0,79.82-34.5,82.04-77.92l.11-4.22v-50.71c0-45.38-37.15-82.14-82.14-82.14ZM544.71,601.7c5.29-2.23,11.26-2.29,16.55-.09.53.22,1.06.86.92,1.26l-6.51.48c-.55.04-1.2.65-1.48,1.23,1,.59,2,.89,3.09,1.05,3.94.58,8.92,1.62,10.89,4.78.52.83.28,2.03-.56,2.5-3-1.52-6.27-2.57-9.65-2.6-1.27-.01-2.52.14-3.51,1.03.3.5.97.94,1.64,1.17,3.38,1.16,6.44,2.31,9.47,3.98,2.08,1.15,4.06,3.34,3.13,4.77-.95,1.46-3.36.38-5.4-.84-3.39-2.02-7.07-3.14-11.01-2.88-1.12.08-2.82.86-2.9,1.55-.03.28.24.88.46,1.08,2.04,1.8,5.28,5.02,4.91,6.92-.11.57-.94,1.57-1.55,1.49l-8.54-6.9c-2.39-1.93-3.82-4.47-4.34-7.39-1.03-4.75.51-9.6,4.41-12.57ZM504.09,543.58c9.16-1.43,13.18,10.16,12.82,16.25-.24,3.98-2.54,5.5-4.62,7.39-.54.49-1.41.23-1.62-.46,0,0-.32-3.78-2.61-11.27-1.5-4.89-3.52-8.28-4.75-10.04-.5-.72-.09-1.73.78-1.86ZM509.76,595.08s0,.02,0,.02c0,0,0,0,0-.01h0ZM405.56,604.91c-9.21,1.02-12.71-10.73-12.08-16.8.41-3.97,2.79-5.38,4.95-7.18.56-.46,1.42-.17,1.6.53,0,0,.15,3.79,2.1,11.37,1.28,4.95,3.15,8.43,4.3,10.24.47.74.01,1.73-.86,1.83ZM406.59,581.59c-1.39-10.39,1.93-21.4,7.64-30.21,7.84-12.48,30.39-26.15,56.36-20.54,12.63,2.73,24.44,13.49,26.58,16.7,4.67,7,7.12,15.19,6.97,23.62-.14,7.94-2.66,15.33-6.84,22.06-5.46,8.8-13.42,15.64-22.82,20.11-10.79,5.13-23.48,6.43-35.1,3.63-17.26-4.15-30.42-17.47-32.8-35.36ZM444.85,684.9c-1.94-.06-4.36-3.93-5.66-6.32-.14-.27-.67-.66-.95-.69-.68-.07-1.83,1.42-2.15,2.49-1.13,3.78-.85,7.62.37,11.37.73,2.26,1.25,4.85-.38,5.46-1.6.59-3.3-1.82-3.96-4.11-.95-3.32-1.4-6.56-1.78-10.11-.08-.7-.36-1.45-.78-1.85-1.08.77-1.51,1.96-1.78,3.2-.71,3.3-.42,6.72.4,9.98-.64.72-1.86.69-2.56,0-2.64-2.62-2.56-7.7-2.25-11.68.09-1.1.01-2.14-.34-3.25-.63.15-1.37.65-1.53,1.18l-1.91,6.24c-.43.05-.93-.61-1.02-1.18-.98-5.65.4-11.46,3.75-16.12,3.77-3.15,8.83-3.58,13.24-1.52,2.74,1.15,4.9,3.11,6.25,5.87l4.84,9.86c-.06.62-1.21,1.2-1.79,1.18ZM458.72,698.98c-4.16,0-8.14-.79-11.8-2.22.04-.79-.01-1.59-.17-2.37l-.14-.67c.42.03.84.02,1.27-.03,2.67-.32,4.96-2,6.28-4.59,1.19-2.34,1.23-4.83.12-7.61l-1.89-4.74c-.25-.62-.46-1.23-.67-1.84-.43-1.26-.88-2.56-1.62-3.94-.19-.36-.43-.73-.68-1.12-.25-.38-.66-1.01-.69-1.25-.04-.86.23-1.84.52-2.88.11-.39.21-.77.31-1.16.2-.8.33-1.71.47-2.68.02-.17.05-.35.08-.52,3.51,5.26,11.37,16.49,15.11,20.48,1.98,2.12,3.97,4.82,6.08,7.69,2.37,3.22,4.85,6.6,7.57,9.44h-20.16ZM487.06,694.56c-3.86-2.4-7.39-5.13-8.61-7.16-5.13-8.5-15.07-17.59-17.97-21.64-2.68-3.74-7.57-14.71-11.41-14.91-4.86-.26-8.46,10.86-8.46,10.86-.19.93-1.12,1.52-2.04,1.28l-1.94-.49-4.07-.96c-2.06-.48-5.31.2-7.95.71-.99.19-1.85-.67-1.67-1.65l2.31-12.66c.56-3.39,1.85-6.48,3.19-9.66,1.62-3.83,3.73-7.32,6.1-10.77,1.3-1.89,3.58-2.86,5.84-2.47l6.83,1.02c8.86.56,16.6-1.94,21.5.32,2.7,1.25,4.21,3.84,5.28,6.56.46,1.19,1.87,1.69,2.97,1.05.91-.53,1.3-1.66.87-2.62-1.01-2.3-2.45-6.19-.79-8.62,2.02-2.96,8.97-6.69,14.77-11.11,4.83-3.68,8.78-8.28,9.33-9.32.67-1.28,2.01-2.06,3.45-2l8.43.3,14.77-.23c1.38-.04,2.77.11,4.11.45l1.62.41c1.82.47,2.83,2.47,2.03,4.22-.66,1.45-.84,3.08-.83,4.68l.03,3.92c.03,1.36-1.01,2.51-2.37,2.61l-2.94.21-10,.72s0,0,0,0c-3.98.34-7.73.34-11.52.02-2.05-.17-3.42,2.06-2.31,3.79,3.17,4.91,8.66,13.2,14.66,21.18,16.76,22.3,21.19,11.47,24.51,11.96,5.75.85,14.1,20.86,14.54,26.53.19,2.4-.96,4.39-2.75,5.48-4.07,2.48-8.59-1.23-11.82-4.74,2.18-2.53,3.5-5.44,2.49-8.72,0,0-6.23,5.21-14.25,5.18-8.02-.03-23.62-5.19-27.01-8.01-1.07-.89-2.6-1.03-3.81-.33-1.82,1.05,1.28,15.44,9.65,24.59h-24.73Z"/>
</svg>